<svg width="126" height="88" viewBox="0 0 126 88" fill="none" xmlns="http://www.w3.org/2000/svg">
<path d="M0.411598 2.67293C0.192879 1.87389 0.663315 1.04884 1.46235 0.830122C2.26138 0.611402 3.08643 1.08184 3.30515 1.88087L0.411598 2.67293ZM124.793 74.7126C125.404 75.2719 125.446 76.2208 124.887 76.8319L115.772 86.7902C115.212 87.4013 114.264 87.4433 113.652 86.884C113.041 86.3246 112.999 85.3758 113.559 84.7647L121.661 75.9128L112.809 67.8107C112.198 67.2514 112.156 66.3026 112.715 65.6915C113.274 65.0804 114.223 65.0384 114.834 65.5978L124.793 74.7126ZM3.30515 1.88087C11.5227 31.9015 54.3959 77.3863 123.714 74.3206L123.846 77.3176C53.1503 80.4443 9.00483 34.0659 0.411598 2.67293L3.30515 1.88087Z" fill="#292929"/>
</svg>
