<svg width="43" height="43" viewBox="0 0 43 43" fill="none" xmlns="http://www.w3.org/2000/svg">
<rect width="43" height="43" rx="8" fill="#0094FF"/>
<rect width="43" height="43" rx="8" fill="#FFF355"/>
<g clip-path="url(#clip0_1_271)">
<path d="M28.4256 22.3995C28.0861 21.9708 28.1833 21.78 28.4256 21.3968C28.43 21.3924 31.2326 17.5196 31.5214 16.2063L31.5231 16.2054C31.6666 15.7268 31.5231 15.375 30.8292 15.375H28.5332C27.9487 15.375 27.6792 15.6769 27.5349 16.0146C27.5349 16.0146 26.3659 18.8129 24.7121 20.6268C24.1784 21.1509 23.9316 21.3189 23.6402 21.3189C23.4967 21.3189 23.2736 21.1509 23.2736 20.6723V16.2054C23.2736 15.6314 23.11 15.375 22.6261 15.375H19.0159C18.6492 15.375 18.4314 15.6428 18.4314 15.8921C18.4314 16.4364 19.2582 16.5615 19.344 18.0928V21.4151C19.344 22.1431 19.2119 22.277 18.9187 22.277C18.1382 22.277 16.2439 19.4674 15.1212 16.2518C14.8946 15.6279 14.6732 15.3759 14.0844 15.3759H11.7875C11.1321 15.3759 11 15.6777 11 16.0155C11 16.6123 11.7805 19.5794 14.6295 23.4994C16.5282 26.1751 19.2022 27.625 21.6347 27.625C23.0969 27.625 23.2754 27.303 23.2754 26.7491C23.2754 24.1924 23.1432 23.9509 23.8756 23.9509C24.2151 23.9509 24.7996 24.1189 26.1646 25.4095C27.7247 26.9399 27.9811 27.625 28.8544 27.625H31.1504C31.8049 27.625 32.1365 27.303 31.9457 26.6678C31.5091 25.3316 28.5586 22.5833 28.4256 22.3995Z" fill="#363636"/>
</g>
<defs>
<clipPath id="clip0_1_271">
<rect width="21" height="21" fill="white" transform="translate(11 11)"/>
</clipPath>
</defs>
</svg>
