<svg width="43" height="43" viewBox="0 0 43 43" fill="none" xmlns="http://www.w3.org/2000/svg">
<rect width="43" height="43" rx="8" fill="#0094FF"/>
<rect width="43" height="43" rx="8" fill="#FFF355"/>
<path d="M10.4062 21.0734L15.7059 23.1286L17.7572 29.9832C17.8885 30.4222 18.4051 30.5844 18.7481 30.2931L21.7022 27.7908C22.0118 27.5287 22.4529 27.5156 22.7765 27.7597L28.1047 31.7791C28.4715 32.0562 28.9913 31.8473 29.0833 31.3867L32.9865 11.8786C33.0869 11.3754 32.6111 10.9557 32.15 11.141L10.4 19.8591C9.86329 20.0742 9.86797 20.8638 10.4062 21.0734ZM17.4266 22.0346L27.7841 15.4063C27.9703 15.2875 28.1618 15.549 28.002 15.7031L19.454 23.9591C19.1535 24.2497 18.9597 24.6386 18.9048 25.0607L18.6137 27.3028C18.5751 27.6022 18.1704 27.6319 18.0909 27.3422L16.971 23.2536C16.8427 22.7873 17.0296 22.2892 17.4266 22.0346Z" fill="#363636"/>
</svg>
