<svg width="43" height="43" viewBox="0 0 43 43" fill="none" xmlns="http://www.w3.org/2000/svg">
<rect width="43" height="43" rx="8" fill="#0094FF"/>
<rect width="43" height="43" rx="8" fill="#FFF355"/>
<g clip-path="url(#clip0_1_274)">
<path d="M20.3188 26.4049C18.4582 26.2108 16.7806 25.7526 15.3444 24.6293C15.1662 24.4895 14.9822 24.3548 14.8195 24.1987C14.1909 23.5949 14.1275 22.9034 14.625 22.1908C15.0505 21.581 15.7649 21.4179 16.5074 21.7681C16.6512 21.8359 16.7882 21.9206 16.9194 22.0116C19.5961 23.8508 23.2732 23.9016 25.96 22.0943C26.2262 21.8902 26.5107 21.7238 26.8405 21.6389C27.4817 21.4742 28.0797 21.7097 28.4238 22.2708C28.817 22.9115 28.8119 23.5369 28.3276 24.0343C27.5845 24.7969 26.691 25.3487 25.6981 25.7338C24.7593 26.0977 23.731 26.281 22.7132 26.4026C22.8668 26.5698 22.9392 26.652 23.0352 26.7485C24.4172 28.137 25.8052 29.5197 27.1826 30.9125C27.6519 31.3871 27.7499 31.9755 27.4915 32.5275C27.209 33.1307 26.5766 33.5276 25.9565 33.4852C25.5636 33.458 25.2572 33.2625 24.985 32.9882C23.9421 31.9388 22.8796 30.9087 21.8578 29.8394C21.5605 29.5285 21.4174 29.5873 21.155 29.8573C20.1059 30.9374 19.0396 32.0009 17.967 33.0583C17.4854 33.5332 16.9123 33.6186 16.3538 33.3474C15.7601 33.0596 15.3823 32.4536 15.4115 31.8445C15.4316 31.4326 15.6342 31.1179 15.917 30.8356C17.2846 29.4699 18.6485 28.1008 20.0129 26.7329C20.1031 26.6419 20.1873 26.5454 20.3188 26.4049Z" fill="#363636"/>
<path d="M21.4521 21.6479C18.1329 21.6366 15.4112 18.885 15.4305 15.5605C15.4496 12.1993 18.1731 9.49069 21.525 9.49999C24.8836 9.50904 27.5795 12.2566 27.5626 15.6528C27.5455 18.9704 24.805 21.6595 21.4521 21.6479ZM24.4686 15.5686C24.4629 13.9179 23.1482 12.6038 21.5008 12.6023C19.8396 12.6005 18.5132 13.9385 18.526 15.6042C18.5383 17.2486 19.8642 18.5534 21.5162 18.5474C23.1631 18.5416 24.4742 17.219 24.4686 15.5686Z" fill="#363636"/>
</g>
<defs>
<clipPath id="clip0_1_274">
<rect width="24" height="24" fill="white" transform="translate(9.5 9.5)"/>
</clipPath>
</defs>
</svg>
