<svg width="167" height="46" viewBox="0 0 167 46" fill="none" xmlns="http://www.w3.org/2000/svg">
<path d="M18 0C8.07398 0 0 10.3155 0 23C0 35.6845 8.07398 46 18 46C27.926 46 36 35.6845 36 23C36 10.3155 27.9213 0 18 0ZM32.6147 23C32.6147 34.8593 26.0599 44.5072 18 44.5072C9.94009 44.5072 3.38526 34.8593 3.38526 23C3.38526 11.1407 9.94009 1.48821 18 1.48821C26.0599 1.48821 32.6147 11.1361 32.6147 22.9954V23Z" fill="#57A1D4"/>
<path d="M17.6057 14.9281H18.3888L19.5328 5.55376C19.5844 5.11796 19.4484 4.68216 19.153 4.35763C18.8576 4.02846 18.4403 3.84302 17.9949 3.84302C17.5495 3.84302 17.1322 4.02846 16.8368 4.35763C16.5414 4.6868 16.4054 5.1226 16.457 5.55376L17.601 14.9281H17.6057Z" fill="#57A1D4"/>
<path d="M11.0655 12.9481C17.1936 15.1595 17.5547 21.9607 17.5547 22.0257V22.1833H18.4315L18.4362 22.0257C18.4362 21.9561 18.8019 15.1595 24.9253 12.9481C25.3098 12.809 25.6146 12.5076 25.7553 12.1275C25.8959 11.7519 25.8631 11.3393 25.6662 10.9962L25.638 10.9452C25.2676 10.3054 24.433 10.069 23.7813 10.4167C19.9225 12.4613 18.5112 16.5086 17.9954 19.2996C17.4797 16.5086 16.0684 12.4613 12.2095 10.4167C11.5531 10.069 10.7232 10.3054 10.3528 10.9452L10.3247 10.9962C10.1277 11.3393 10.0949 11.7566 10.2356 12.1321C10.3762 12.5123 10.681 12.8136 11.0655 12.9527V12.9481Z" fill="#57A1D4"/>
<path d="M28.2315 31.1828C27.2891 32.8518 25.2964 33.9738 23.2661 33.9738C21.2359 33.9738 19.3511 32.9075 18.3805 31.308C18.3805 31.2987 18.3805 31.2894 18.3805 31.2802L18.4039 31.0994H17.5881L17.6115 31.2802C17.6115 31.2802 17.6115 31.2987 17.6115 31.308C16.641 32.9075 14.6998 33.9738 12.7259 33.9738C10.7519 33.9738 8.70297 32.8518 7.76054 31.1828L7.71365 31.0994H7.04785L7.0713 31.2802C7.40888 34.1082 9.84233 36.2409 12.7259 36.2409C15.0843 36.2409 17.138 34.8129 17.996 32.7498C18.8541 34.8176 20.9077 36.2409 23.2661 36.2409C26.1497 36.2409 28.5831 34.1082 28.9207 31.2802L28.9442 31.0994H28.2784L28.2315 31.1828V31.1828Z" fill="#57A1D4"/>
<path d="M17.9993 26.6354C17.3616 23.2278 15.2423 17.3167 8.2233 16.5657C7.78725 16.5193 7.35119 16.6584 7.02767 16.9458C6.70415 17.2333 6.5166 17.6459 6.5166 18.077V18.1095C6.5166 18.9069 7.13082 19.5606 7.94197 19.6255C11.768 19.9361 14.5531 21.6654 16.2082 24.7578C17.4507 27.0758 17.5585 29.3383 17.5585 29.3615V29.5191H18.4353L18.44 29.3615C18.44 29.3383 18.5525 27.0805 19.7904 24.7578C21.4455 21.6608 24.2306 19.9361 28.0566 19.6255C28.8724 19.5606 29.482 18.9069 29.482 18.1095V18.077C29.482 17.6459 29.2944 17.2333 28.9709 16.9458C28.6474 16.6584 28.2113 16.5193 27.7753 16.5657C20.7516 17.3167 18.6369 23.2278 17.9993 26.6354V26.6354Z" fill="#57A1D4"/>
<path d="M23.2659 39.3662C21.3013 39.3662 19.4727 38.5873 18.1177 37.1733L18.0005 37.0481L17.8832 37.1733C16.5282 38.5873 14.6996 39.3662 12.735 39.3662C12.4631 39.3662 12.1818 39.3476 11.8958 39.3152L11.7129 39.292V40.0662L11.7832 40.1126C12.6084 40.6828 13.5743 40.9888 14.5824 40.9888C15.8765 40.9888 17.0862 40.4974 18.0052 39.598C18.9241 40.4928 20.1338 40.9888 21.4279 40.9888C22.436 40.9888 23.4019 40.6875 24.2271 40.1126L24.2974 40.0662V39.292L24.1146 39.3152C23.8285 39.3476 23.5472 39.3662 23.2753 39.3662H23.2659Z" fill="#57A1D4"/>
<path d="M159.912 23.054C161.94 23.054 163.491 23.5307 164.566 24.484C165.641 25.4374 166.178 26.694 166.178 28.254C166.178 29.2074 165.961 30.1174 165.528 30.984C165.112 31.8507 164.393 32.57 163.37 33.142C162.365 33.714 161.021 34 159.34 34L158.118 33.974C157.39 33.9394 156.792 33.922 156.324 33.922C154.833 33.922 153.724 33.948 152.996 34V33.48C153.62 33.4454 154.071 33.376 154.348 33.272C154.643 33.168 154.842 32.9687 154.946 32.674C155.05 32.3794 155.102 31.9027 155.102 31.244V18.348C155.102 17.6894 155.05 17.2127 154.946 16.918C154.842 16.6234 154.643 16.424 154.348 16.32C154.071 16.216 153.62 16.1467 152.996 16.112V15.592C153.724 15.644 154.833 15.67 156.324 15.67C157.971 15.67 159.245 15.644 160.146 15.592V16.112C159.366 16.1467 158.803 16.216 158.456 16.32C158.109 16.424 157.867 16.6234 157.728 16.918C157.589 17.2127 157.52 17.6894 157.52 18.348V23.106L159.912 23.054ZM159.34 33.48C160.952 33.48 162.061 33.038 162.668 32.154C163.275 31.27 163.578 30.0654 163.578 28.54C163.578 26.8587 163.24 25.6107 162.564 24.796C161.905 23.964 160.805 23.548 159.262 23.548C158.482 23.548 157.901 23.5567 157.52 23.574V31.244C157.52 31.9027 157.563 32.388 157.65 32.7C157.737 32.9947 157.901 33.2027 158.144 33.324C158.387 33.428 158.785 33.48 159.34 33.48Z" fill="#57A1D4"/>
<path d="M151.148 15.592C151.026 16.8227 150.966 17.932 150.966 18.92C150.966 19.7867 150.992 20.4974 151.044 21.052H150.446C150.307 19.7174 150.134 18.7294 149.926 18.088C149.718 17.4294 149.354 16.9527 148.834 16.658C148.314 16.346 147.516 16.19 146.442 16.19H145.038V30.984C145.038 31.712 145.107 32.2407 145.246 32.57C145.384 32.8994 145.627 33.1247 145.974 33.246C146.32 33.3674 146.884 33.4454 147.664 33.48V34C146.762 33.948 145.488 33.922 143.842 33.922C142.108 33.922 140.826 33.948 139.994 34V33.48C140.774 33.4454 141.337 33.3674 141.684 33.246C142.03 33.1247 142.273 32.8994 142.412 32.57C142.55 32.2407 142.62 31.712 142.62 30.984V16.19H141.216C140.141 16.19 139.344 16.346 138.824 16.658C138.304 16.9527 137.94 17.4294 137.732 18.088C137.524 18.7294 137.35 19.7174 137.212 21.052H136.614C136.666 20.4974 136.692 19.7867 136.692 18.92C136.692 17.932 136.631 16.8227 136.51 15.592C137.948 15.644 140.392 15.67 143.842 15.67C147.274 15.67 149.709 15.644 151.148 15.592Z" fill="#57A1D4"/>
<path d="M126.163 26.564V31.244C126.163 31.9027 126.232 32.3794 126.371 32.674C126.509 32.9687 126.752 33.168 127.099 33.272C127.445 33.376 128.009 33.4454 128.789 33.48V34C127.887 33.948 126.613 33.922 124.967 33.922C123.476 33.922 122.367 33.948 121.639 34V33.48C122.263 33.4454 122.713 33.376 122.991 33.272C123.285 33.168 123.485 32.9687 123.589 32.674C123.693 32.3794 123.745 31.9027 123.745 31.244V18.348C123.745 17.6894 123.693 17.2127 123.589 16.918C123.485 16.6234 123.285 16.424 122.991 16.32C122.713 16.216 122.263 16.1467 121.639 16.112V15.592C122.367 15.644 123.424 15.67 124.811 15.67L127.619 15.644C127.948 15.6267 128.321 15.618 128.737 15.618C130.765 15.618 132.316 16.086 133.391 17.022C134.465 17.9407 135.003 19.18 135.003 20.74C135.003 21.6934 134.786 22.612 134.353 23.496C133.937 24.3627 133.217 25.0907 132.195 25.68C131.189 26.2694 129.846 26.564 128.165 26.564H126.163ZM128.087 16.112C127.549 16.112 127.142 16.1727 126.865 16.294C126.605 16.4154 126.423 16.632 126.319 16.944C126.215 17.256 126.163 17.724 126.163 18.348V26.044H127.905C129.603 26.044 130.773 25.5934 131.415 24.692C132.073 23.7734 132.403 22.5514 132.403 21.026C132.403 19.3447 132.065 18.1054 131.389 17.308C130.73 16.5107 129.629 16.112 128.087 16.112Z" fill="#57A1D4"/>
<path d="M119.107 30.672C119.107 31.66 119.168 32.7694 119.289 34C118.11 33.948 116.126 33.922 113.335 33.922C110.007 33.922 107.494 33.948 105.795 34V33.48C106.419 33.4454 106.87 33.376 107.147 33.272C107.442 33.168 107.641 32.9687 107.745 32.674C107.849 32.3794 107.901 31.9027 107.901 31.244V18.348C107.901 17.6894 107.849 17.2127 107.745 16.918C107.641 16.6234 107.442 16.424 107.147 16.32C106.87 16.216 106.419 16.1467 105.795 16.112V15.592C107.494 15.644 110.007 15.67 113.335 15.67C115.883 15.67 117.694 15.644 118.769 15.592C118.648 16.736 118.587 17.7587 118.587 18.66C118.587 19.336 118.613 19.8734 118.665 20.272H118.067C117.946 19.1454 117.79 18.3134 117.599 17.776C117.408 17.2214 117.088 16.8227 116.637 16.58C116.186 16.32 115.502 16.19 114.583 16.19H112.425C111.801 16.19 111.342 16.242 111.047 16.346C110.77 16.4327 110.579 16.6234 110.475 16.918C110.371 17.2127 110.319 17.6894 110.319 18.348V24.484H112.035C112.642 24.484 113.11 24.3454 113.439 24.068C113.768 23.7734 113.985 23.4354 114.089 23.054C114.21 22.6554 114.306 22.1614 114.375 21.572L114.453 21.052H115.051C114.999 21.78 114.973 22.5947 114.973 23.496V24.744C114.973 25.628 115.025 26.8587 115.129 28.436H114.531C114.514 28.3147 114.462 27.8987 114.375 27.188C114.288 26.46 114.046 25.914 113.647 25.55C113.266 25.186 112.728 25.004 112.035 25.004H110.319V31.244C110.319 31.9027 110.371 32.3794 110.475 32.674C110.579 32.9687 110.77 33.168 111.047 33.272C111.342 33.3587 111.801 33.402 112.425 33.402H114.323C115.398 33.402 116.212 33.2634 116.767 32.986C117.339 32.6914 117.755 32.232 118.015 31.608C118.275 30.9667 118.466 30.0307 118.587 28.8H119.185C119.133 29.268 119.107 29.892 119.107 30.672Z" fill="#57A1D4"/>
<path d="M96.4487 15.228C97.4887 15.228 98.3727 15.3754 99.1007 15.67C99.8287 15.9647 100.539 16.3807 101.233 16.918C101.423 17.074 101.588 17.152 101.727 17.152C102.073 17.152 102.299 16.632 102.403 15.592H103.001C102.931 16.7187 102.897 18.712 102.897 21.572H102.299C102.108 20.4454 101.935 19.6394 101.779 19.154C101.623 18.6514 101.363 18.1747 100.999 17.724C100.479 17.048 99.8113 16.5454 98.9967 16.216C98.1993 15.8694 97.3327 15.696 96.3967 15.696C95.27 15.696 94.282 16.0687 93.4327 16.814C92.6007 17.5594 91.9507 18.6254 91.4827 20.012C91.0147 21.3814 90.7807 22.9934 90.7807 24.848C90.7807 26.7374 91.032 28.358 91.5347 29.71C92.0373 31.062 92.7307 32.0934 93.6147 32.804C94.516 33.4974 95.53 33.844 96.6567 33.844C97.5233 33.844 98.364 33.6794 99.1787 33.35C99.9933 33.0207 100.635 32.5267 101.103 31.868C101.449 31.3827 101.701 30.8627 101.857 30.308C102.013 29.7534 102.16 28.904 102.299 27.76H102.897C102.897 30.7414 102.931 32.8214 103.001 34H102.403C102.351 33.4454 102.273 33.0554 102.169 32.83C102.082 32.5874 101.952 32.466 101.779 32.466C101.64 32.466 101.458 32.5354 101.233 32.674C100.453 33.2287 99.7073 33.6534 98.9967 33.948C98.286 34.2254 97.428 34.364 96.4227 34.364C94.776 34.364 93.3287 33.9914 92.0807 33.246C90.85 32.5007 89.888 31.426 89.1947 30.022C88.5187 28.6007 88.1807 26.9107 88.1807 24.952C88.1807 23.0454 88.5273 21.3554 89.2207 19.882C89.9313 18.4087 90.9107 17.2647 92.1587 16.45C93.424 15.6354 94.854 15.228 96.4487 15.228Z" fill="#57A1D4"/>
<path d="M71.9082 23.054C73.9362 23.054 75.4875 23.5307 76.5622 24.484C77.6369 25.4374 78.1742 26.694 78.1742 28.254C78.1742 29.2074 77.9575 30.1174 77.5242 30.984C77.1082 31.8507 76.3889 32.57 75.3662 33.142C74.3609 33.714 73.0175 34 71.3362 34L70.1142 33.974C69.3862 33.9394 68.7882 33.922 68.3202 33.922C66.8295 33.922 65.7202 33.948 64.9922 34V33.48C65.6162 33.4454 66.0669 33.376 66.3442 33.272C66.6389 33.168 66.8382 32.9687 66.9422 32.674C67.0462 32.3794 67.0982 31.9027 67.0982 31.244V18.348C67.0982 17.6894 67.0462 17.2127 66.9422 16.918C66.8382 16.6234 66.6389 16.424 66.3442 16.32C66.0669 16.216 65.6162 16.1467 64.9922 16.112V15.592C65.7202 15.644 66.8295 15.67 68.3202 15.67C69.9669 15.67 71.2409 15.644 72.1422 15.592V16.112C71.3622 16.1467 70.7989 16.216 70.4522 16.32C70.1055 16.424 69.8629 16.6234 69.7242 16.918C69.5855 17.2127 69.5162 17.6894 69.5162 18.348V23.106L71.9082 23.054ZM85.9222 16.112C85.2982 16.1467 84.8389 16.216 84.5442 16.32C84.2669 16.424 84.0762 16.6234 83.9722 16.918C83.8682 17.2127 83.8162 17.6894 83.8162 18.348V31.244C83.8162 31.9027 83.8682 32.3794 83.9722 32.674C84.0762 32.9687 84.2669 33.168 84.5442 33.272C84.8389 33.376 85.2982 33.4454 85.9222 33.48V34C85.1249 33.948 84.0242 33.922 82.6202 33.922C81.1295 33.922 80.0202 33.948 79.2922 34V33.48C79.9162 33.4454 80.3669 33.376 80.6442 33.272C80.9389 33.168 81.1382 32.9687 81.2422 32.674C81.3462 32.3794 81.3982 31.9027 81.3982 31.244V18.348C81.3982 17.6894 81.3462 17.2127 81.2422 16.918C81.1382 16.6234 80.9389 16.424 80.6442 16.32C80.3669 16.216 79.9162 16.1467 79.2922 16.112V15.592C80.0202 15.644 81.1295 15.67 82.6202 15.67C84.0069 15.67 85.1075 15.644 85.9222 15.592V16.112ZM71.3362 33.48C72.9482 33.48 74.0575 33.038 74.6642 32.154C75.2709 31.27 75.5742 30.0654 75.5742 28.54C75.5742 26.8587 75.2362 25.6107 74.5602 24.796C73.9015 23.964 72.8009 23.548 71.2582 23.548C70.4782 23.548 69.8975 23.5567 69.5162 23.574V31.244C69.5162 31.9027 69.5595 32.388 69.6462 32.7C69.7329 32.9947 69.8975 33.2027 70.1402 33.324C70.3829 33.428 70.7815 33.48 71.3362 33.48Z" fill="#57A1D4"/>
<path d="M55.6459 15.228C56.6859 15.228 57.5699 15.3754 58.2979 15.67C59.0259 15.9647 59.7366 16.3807 60.4299 16.918C60.6206 17.074 60.7853 17.152 60.9239 17.152C61.2706 17.152 61.4959 16.632 61.5999 15.592H62.1979C62.1286 16.7187 62.0939 18.712 62.0939 21.572H61.4959C61.3053 20.4454 61.1319 19.6394 60.9759 19.154C60.8199 18.6514 60.5599 18.1747 60.1959 17.724C59.6759 17.048 59.0086 16.5454 58.1939 16.216C57.3966 15.8694 56.5299 15.696 55.5939 15.696C54.4673 15.696 53.4793 16.0687 52.6299 16.814C51.7979 17.5594 51.1479 18.6254 50.6799 20.012C50.2119 21.3814 49.9779 22.9934 49.9779 24.848C49.9779 26.7374 50.2293 28.358 50.7319 29.71C51.2346 31.062 51.9279 32.0934 52.8119 32.804C53.7133 33.4974 54.7273 33.844 55.8539 33.844C56.7206 33.844 57.5613 33.6794 58.3759 33.35C59.1906 33.0207 59.8319 32.5267 60.2999 31.868C60.6466 31.3827 60.8979 30.8627 61.0539 30.308C61.2099 29.7534 61.3573 28.904 61.4959 27.76H62.0939C62.0939 30.7414 62.1286 32.8214 62.1979 34H61.5999C61.5479 33.4454 61.4699 33.0554 61.3659 32.83C61.2793 32.5874 61.1493 32.466 60.9759 32.466C60.8373 32.466 60.6553 32.5354 60.4299 32.674C59.6499 33.2287 58.9046 33.6534 58.1939 33.948C57.4833 34.2254 56.6253 34.364 55.6199 34.364C53.9733 34.364 52.5259 33.9914 51.2779 33.246C50.0473 32.5007 49.0853 31.426 48.3919 30.022C47.7159 28.6007 47.3779 26.9107 47.3779 24.952C47.3779 23.0454 47.7246 21.3554 48.4179 19.882C49.1286 18.4087 50.1079 17.2647 51.3559 16.45C52.6213 15.6354 54.0513 15.228 55.6459 15.228Z" fill="#57A1D4"/>
</svg>
