<svg width="174" height="47" viewBox="0 0 174 47" fill="none" xmlns="http://www.w3.org/2000/svg">
<g clip-path="url(#clip0_21_2)">
<path d="M59.4967 6.70843C57.3472 6.70843 55.2983 7.45221 53.7577 8.76921V1.65833H65.7227V0.246582H50.7029V21.5887H59.4967C64.0815 21.5887 67.8086 18.2535 67.8086 14.1509C67.8086 10.0483 64.0815 6.71317 59.4967 6.71317V6.70843ZM64.4839 14.3404C64.4839 17.5619 61.8103 20.1769 58.5278 20.1769H53.7577V10.8489C54.8801 9.3756 56.6537 8.50392 58.5278 8.50392C61.8103 8.50392 64.4839 11.1237 64.4839 14.3404Z" fill="white"/>
<path d="M90.8703 3.41568C88.8902 1.17488 86.3119 0 83.3683 0C77.3646 0 72.478 4.8985 72.478 10.9198C72.478 16.941 77.3646 21.8395 83.3683 21.8395C86.3119 21.8395 88.8902 20.6647 90.8703 18.4238V21.5932H93.925V0.246346H90.8703V3.41568ZM90.8703 6.18234V15.6525C89.4037 18.3528 86.709 20.0298 83.8289 20.0298C79.4135 20.0298 75.824 15.9414 75.824 10.9198C75.824 5.89809 79.4135 1.80496 83.8289 1.80496C86.709 1.80496 89.4037 3.48201 90.8703 6.18234Z" fill="white"/>
<path d="M117.998 0.246582H105.334L105.355 1.34566C105.271 12.4549 101.745 18.4193 100.506 20.1769H97.8269V21.5887H120.349V20.1769H118.003V0.246582H117.998ZM114.943 1.65833V20.1769H102.661C103.984 18.0593 106.97 12.1328 107.097 1.65833H114.943Z" fill="white"/>
<path d="M170.665 0.246582V9.51772H157.652V0.246582H154.597V21.5887H157.652V10.9295H170.665V21.5887H173.72V0.246582H170.665Z" fill="white"/>
<path d="M148.366 10.8155C148.308 4.85112 143.035 0 136.607 0C130.18 0 124.849 4.8985 124.849 10.9198C124.849 16.941 130.122 21.8395 136.607 21.8395C141.97 21.8395 146.656 18.476 147.995 13.658L148.101 13.2743H146.508L146.433 13.4922C145.02 17.628 141.293 20.2999 136.941 20.2999C131.964 20.2999 128.189 16.3725 128.094 11.133H148.371V10.8203L148.366 10.8155ZM128.158 9.71646C128.687 4.99325 132.34 1.34069 136.607 1.34069C140.874 1.34069 144.528 4.99325 145.057 9.71646H128.158Z" fill="white"/>
<path d="M113.36 28.3961C113.98 26.07 113.858 23.6302 112.984 21.1573C112.227 19.0018 110.994 16.9552 109.31 15.0792C107.521 13.08 105.218 11.3461 102.65 10.0623C99.7275 8.60313 96.408 7.67459 92.7709 7.2956C90.4044 7.04925 88.5143 7.03031 86.8149 7.24349C85.0466 7.46141 83.686 7.93989 82.6642 8.70262C81.743 9.38954 81.1871 10.3465 81.1024 11.4029C81.0018 12.6299 81.5683 13.7243 82.0554 14.4302C82.3942 14.9134 82.8124 15.3871 83.3048 15.8324C83.4477 15.9651 83.6383 16.0125 83.8289 15.9698C84.0354 15.9225 84.2048 15.7709 84.2631 15.5861C84.316 15.4108 84.2631 15.2355 84.1148 15.1029C83.6225 14.6528 83.2942 14.2833 82.9818 13.8143C82.8389 13.6059 82.7118 13.3785 82.5954 13.1416L82.5689 13.0895C82.5689 13.0895 82.5636 13.0753 82.5583 13.0658C82.5371 13.0089 82.5107 12.9521 82.4895 12.9C82.4418 12.7815 82.3995 12.6631 82.3677 12.5399C82.3359 12.4404 82.3148 12.341 82.2936 12.2367C82.283 12.1846 82.2724 12.1373 82.2671 12.0851C82.2671 12.0662 82.2671 12.0472 82.2618 12.0283L82.2512 11.9525C82.2354 11.7535 82.2354 11.5498 82.2565 11.3177V11.2656C82.2724 11.2135 82.283 11.1613 82.2936 11.114C82.3201 11.005 82.3518 10.896 82.3889 10.7918C82.4048 10.7492 82.4207 10.7018 82.4418 10.6592L82.4736 10.5928C82.5265 10.4886 82.5848 10.3891 82.6483 10.2897C82.7012 10.2044 82.7648 10.1238 82.8283 10.0433L82.8971 9.96277C82.9448 9.9154 82.9871 9.86329 83.0348 9.81591C83.1142 9.74011 83.1989 9.66431 83.2836 9.59325C83.3313 9.55535 83.3842 9.51272 83.4319 9.47482L83.5642 9.38007C83.8077 9.22373 84.0566 9.08161 84.3054 8.96791C84.6019 8.83053 84.8031 8.75473 85.1525 8.64577C86.8361 8.12939 88.6202 8.11044 90.3038 8.16255C93.8615 8.28099 97.2763 8.9537 100.188 10.1096C102.872 11.1756 105.228 12.6394 107.193 14.4633C108.95 16.093 110.332 17.9501 111.301 19.9777L111.343 20.0677C111.343 20.0677 111.348 20.0772 111.354 20.0867C111.354 20.0914 111.354 20.0961 111.359 20.1009L111.428 20.2525C111.486 20.3804 111.539 20.513 111.597 20.6409C111.698 20.8778 111.788 21.1147 111.873 21.3563C112.042 21.83 112.185 22.3085 112.301 22.7728C112.36 23.0049 112.407 23.237 112.45 23.4692C112.471 23.5829 112.492 23.6966 112.508 23.815L112.545 24.085C112.603 24.5351 112.63 24.9804 112.63 25.4068C112.64 28.524 111.195 31.7218 108.775 33.9578C108.23 34.46 107.743 34.8248 107.193 35.1327C106.917 35.2891 106.663 35.4122 106.409 35.507C106.404 35.507 106.398 35.507 106.393 35.5117L106.292 35.5449C106.229 35.5686 106.165 35.5875 106.097 35.6065C105.959 35.6491 105.821 35.6823 105.689 35.7059C105.636 35.7154 105.583 35.7249 105.535 35.7296L105.435 35.7391C105.313 35.7486 105.191 35.7486 105.07 35.7438C105.027 35.7438 104.985 35.7438 104.942 35.7344H104.884C104.784 35.7107 104.688 35.6917 104.588 35.668L104.44 35.6207C104.36 35.5828 104.281 35.5449 104.201 35.5022C104.18 35.488 104.159 35.4785 104.132 35.4596C104.122 35.4501 104.106 35.4406 104.085 35.4264C104.016 35.3743 103.952 35.3127 103.884 35.2369L103.862 35.218C103.862 35.218 103.841 35.1896 103.831 35.1754L103.804 35.1422C103.751 35.0711 103.704 34.9953 103.661 34.9148L103.587 34.7727C103.55 34.6827 103.518 34.5926 103.487 34.4979C103.46 34.4174 103.439 34.3321 103.423 34.2516C103.412 34.2042 103.402 34.1568 103.397 34.1094L103.381 34.0289C103.381 34.0289 103.381 34.0194 103.381 34.0147C103.354 33.7873 103.344 33.5836 103.344 33.3846C103.344 33.1667 103.359 32.9345 103.386 32.7024L103.397 32.6408C103.397 32.6408 103.397 32.6077 103.402 32.5935C103.402 32.5935 103.402 32.5792 103.402 32.5745C103.407 32.5271 103.418 32.475 103.423 32.4276C103.444 32.2997 103.471 32.1718 103.497 32.0439C103.608 31.5465 103.772 31.0348 103.979 30.5185C104.185 30.0116 104.424 29.5331 104.731 29.0262C104.837 28.8462 104.958 28.6709 105.075 28.5003C105.694 28.0645 106.319 27.6144 106.938 27.1502C107.733 26.558 108.505 25.9563 109.241 25.3689L109.427 25.222C109.734 24.9757 110.051 24.7199 110.348 24.4546L110.396 24.4167C110.644 24.2035 110.602 23.924 110.433 23.7392C110.311 23.5781 110.088 23.4739 109.824 23.5544C107.611 24.2129 105.641 25.7194 104.191 27.8276C104.159 27.8513 104.127 27.875 104.09 27.8987C102.878 28.7419 101.729 29.481 100.591 30.1679C99.2405 30.978 97.9963 31.646 96.7839 32.2097C96.4663 32.3566 96.1433 32.5034 95.8204 32.6408C95.6616 32.7072 95.5027 32.7735 95.3386 32.8398L95.0104 32.9724V32.9819C95.0104 32.9819 94.9786 32.9867 94.9574 32.9961L94.9362 33.0009H94.9257C94.2639 33.252 93.6603 33.4509 93.0727 33.612C92.4638 33.7778 91.8603 33.8962 91.2832 33.972H91.2726C91.2726 33.972 91.2726 33.972 91.2673 33.972L91.2091 33.9815L91.1403 33.9863C91.0714 33.9957 90.9973 34.0005 90.9285 34.0052C90.7909 34.0147 90.6479 34.0242 90.5103 34.0289C90.2297 34.0384 89.9597 34.0384 89.7002 34.0194C89.6367 34.0194 89.5679 34.0099 89.5043 34.0052L89.4143 33.9957H89.3879C89.2608 33.9768 89.1338 33.9578 89.0067 33.9341C88.8849 33.9105 88.7632 33.882 88.6414 33.8536C88.5831 33.8394 88.5196 33.8204 88.4614 33.8015L88.4243 33.792C88.4243 33.792 88.3873 33.7778 88.3661 33.7683C88.2708 33.7257 88.1808 33.6783 88.0749 33.6073L88.0008 33.5457C87.9584 33.5125 87.9161 33.4746 87.879 33.4367C87.8684 33.4272 87.8472 33.4036 87.8314 33.3846L87.7837 33.3325C87.7572 33.2993 87.7361 33.2709 87.7096 33.2377C87.6514 33.1525 87.5984 33.0625 87.5402 32.9488L87.4978 32.8445C87.4767 32.7877 87.4555 32.7308 87.4396 32.674C87.4025 32.5556 87.3708 32.4324 87.3496 32.2997L87.3284 32.1671C87.3178 32.096 87.3125 32.0297 87.3125 31.9586C87.3019 31.8118 87.3019 31.6649 87.3072 31.5181C87.3231 31.0775 87.392 30.6274 87.5243 30.1347C88.9643 28.4814 90.1608 26.7617 91.1032 24.9946C91.2673 24.682 91.4315 24.3551 91.6009 23.995L91.6432 23.9003C91.6432 23.9003 91.6591 23.8671 91.6644 23.8529C91.765 23.6302 91.6168 23.3602 91.4103 23.2513C91.1879 23.1328 90.8967 23.166 90.7167 23.3318C90.7009 23.3507 90.6797 23.3649 90.6638 23.3792H90.6532L90.6426 23.3981C90.1503 23.8529 89.7002 24.3219 89.282 24.8051C89.282 24.7862 89.282 24.7672 89.2714 24.7483C89.2132 24.5161 88.9749 24.3077 88.6467 24.3361C88.6149 24.3361 88.5884 24.3266 88.5514 24.3266C86.8572 24.3266 85.2848 24.8004 83.9083 25.4684C82.7913 25.7716 81.6689 26.0984 80.5465 26.4538C78.0317 27.2544 75.4852 28.1876 72.981 29.2346C71.0645 30.0352 69.1851 30.8975 67.3691 31.807C67.6391 31.2101 67.8456 30.6416 67.9885 30.0731C68.2321 29.1162 68.4333 27.9034 67.8138 27.0128C67.3797 26.3827 66.575 26.0369 65.5585 26.0369H65.5479C64.3726 26.0369 63.2396 26.4159 62.2867 26.7854C61.0849 27.2496 59.8301 27.8845 58.4589 28.7325C57.0665 29.5947 55.69 30.5848 54.3718 31.6791C53.2123 32.6408 52.1376 33.6594 51.1582 34.7111C51.857 33.1951 52.5823 31.7218 53.3394 30.3053C54.3823 28.344 55.4888 26.4585 56.6271 24.7009C57.5801 23.2228 58.5701 21.8253 59.5654 20.532C59.9784 19.9919 60.4019 19.466 60.8149 18.9686C60.9101 18.8502 61.0107 18.7365 61.106 18.618L61.249 18.4475L61.3284 18.3528C61.4978 18.1585 61.6725 17.9643 61.8472 17.77C61.8896 17.7274 62.0484 17.5616 62.2019 17.4005C62.2443 17.3579 62.2814 17.32 62.3184 17.2821C62.8584 17.1447 63.409 17.0168 63.9861 16.8936C66.9456 16.2635 68.8568 16.1498 71.7475 15.9793L72.6475 15.9272C73.1293 15.8988 73.6163 15.8703 74.0981 15.8514C74.3099 15.8419 74.4899 15.7424 74.5852 15.5766C74.6858 15.4013 74.6752 15.1882 74.564 15.0271C74.4634 14.885 74.2887 14.8092 74.0822 14.8186L72.9704 14.866C69.9739 14.9939 67.8085 15.0887 64.6585 15.6998C61.7519 16.2635 59.2689 16.9789 57.0718 17.8932C55.113 18.7081 53.5776 19.6082 52.3917 20.6362C51.2852 21.5932 50.5917 22.588 50.327 23.5876C50.0675 24.5635 50.2581 25.5679 50.8458 26.3353C50.9305 26.449 51.0258 26.5532 51.1211 26.6575C51.2111 26.7569 51.3434 26.8138 51.497 26.8185C51.5076 26.8185 51.5182 26.8185 51.5235 26.8185C51.6823 26.8185 51.8411 26.7617 51.947 26.6669C52.1641 26.4727 52.1694 26.1742 51.9576 25.9468L51.8729 25.8521C51.8517 25.8237 51.8305 25.8 51.8093 25.7716C51.7511 25.691 51.6929 25.6105 51.6452 25.5252C51.624 25.4873 51.5976 25.4447 51.5658 25.3784C51.5658 25.3784 51.5552 25.3547 51.5499 25.3405C51.5129 25.2504 51.4758 25.1604 51.4493 25.0704C51.4229 24.9899 51.407 24.9093 51.3858 24.8051C51.3858 24.7909 51.3858 24.7814 51.3805 24.7672C51.3805 24.7625 51.3805 24.7578 51.3805 24.7483C51.3752 24.7009 51.3699 24.6535 51.3699 24.6062C51.3699 24.5067 51.3699 24.4072 51.3699 24.3124C51.3699 24.2651 51.3752 24.2177 51.3805 24.1703C51.3805 24.1703 51.3805 24.1608 51.3805 24.1561C51.3805 24.1561 51.3805 24.1087 51.3858 24.0898C51.4229 23.8861 51.4864 23.6729 51.5658 23.4597C51.587 23.4076 51.6082 23.3555 51.6293 23.3034C51.6346 23.2892 51.6505 23.256 51.6558 23.2465L51.6717 23.2134C51.7246 23.1044 51.7882 23.0002 51.8517 22.8912C51.9894 22.6685 52.1482 22.4459 52.3335 22.2232L52.3705 22.1806L52.3758 22.1711C52.3758 22.1711 52.3811 22.1616 52.3864 22.1569L52.4182 22.119C52.4711 22.0574 52.5241 22.0006 52.5823 21.9437C52.6935 21.83 52.8047 21.7163 52.9211 21.6074C53.1594 21.3847 53.4188 21.162 53.7047 20.9489C53.8476 20.8399 53.9906 20.7357 54.1388 20.6315L54.16 20.6172C54.16 20.6172 54.1812 20.603 54.1918 20.5983L54.3453 20.4988C54.4353 20.442 54.5253 20.3804 54.6153 20.3235C55.3353 19.8687 56.1294 19.4518 57.0348 19.0492C58.0142 18.6133 58.9354 18.2675 60.1107 17.898C60.1795 17.8743 60.2484 17.8553 60.3172 17.8364C59.8513 18.3764 59.3801 18.9449 58.9036 19.5513C57.9242 20.7925 56.9501 22.1474 56.0024 23.5781C54.8694 25.2883 53.7629 27.1265 52.72 29.0451C51.5076 31.2622 50.3481 33.6357 49.2734 36.0991C48.9981 36.7292 48.7281 37.3735 48.4581 38.0225C48.1298 38.501 47.8281 38.9842 47.5475 39.4627C46.6792 40.974 46.0863 42.452 45.7951 43.8448C45.6416 44.5791 45.5621 45.2945 45.5568 45.9814C45.541 46.0904 45.5674 46.1851 45.6204 46.2704C45.6204 46.2704 45.6204 46.2799 45.6257 46.2799C45.6363 46.2988 45.6521 46.3178 45.668 46.332C45.7104 46.3794 45.758 46.422 45.8216 46.4552C45.9169 46.5025 46.0227 46.5262 46.1286 46.5262C46.1286 46.5262 46.1286 46.5262 46.1339 46.5262C46.1657 46.5262 46.1974 46.5168 46.2292 46.512C46.2504 46.512 46.2663 46.512 46.2875 46.5025C46.3245 46.4931 46.3563 46.4789 46.3933 46.4646C46.4092 46.4599 46.4198 46.4552 46.4357 46.4504C46.4357 46.4504 46.441 46.4504 46.4463 46.4457C46.4675 46.4362 46.4833 46.422 46.5045 46.4078C46.5363 46.3841 46.5627 46.3652 46.5839 46.3367C46.5945 46.3273 46.5998 46.3178 46.6104 46.3083C46.6475 46.2609 46.6792 46.2088 46.6951 46.1472C47.5528 43.4943 48.5004 40.9171 49.5116 38.4631C49.644 38.2736 49.7764 38.0889 49.914 37.8994C50.8564 36.6203 51.9364 35.398 53.2176 34.1615C54.4088 33.0151 55.6953 31.9397 57.0401 30.959C58.3054 30.04 59.5919 29.2394 60.8519 28.5856C61.4766 28.2634 62.059 27.9934 62.6308 27.766L62.9802 27.6286C63.1126 27.5813 63.2502 27.5339 63.3879 27.4865C63.6632 27.3965 63.9173 27.3207 64.1714 27.2591C64.4202 27.1975 64.6532 27.1502 64.8808 27.117C64.9285 27.1075 64.9761 27.1028 65.0238 27.098C65.0238 27.098 65.0238 27.098 65.0291 27.098L65.1244 27.0886C65.225 27.0791 65.3308 27.0744 65.4314 27.0696C65.5267 27.0696 65.622 27.0696 65.7226 27.0696C65.765 27.0696 65.8073 27.0744 65.8709 27.0791H65.8973C66.035 27.1028 66.1673 27.1359 66.3156 27.1833C66.3156 27.1833 66.3579 27.1975 66.3791 27.207C66.4109 27.2212 66.4426 27.2354 66.4744 27.2544C66.4956 27.2686 66.522 27.2781 66.5697 27.3065C66.6226 27.3491 66.6756 27.3965 66.7285 27.4439L66.7973 27.5339C66.8185 27.567 66.8397 27.6049 66.8609 27.6381L66.8873 27.6902C66.8873 27.6902 66.9085 27.7329 66.9138 27.7423C66.9297 27.7802 66.9403 27.8134 66.9509 27.8513C66.9668 27.9034 66.9773 27.9555 66.9879 28.0076L67.0091 28.145C67.0091 28.1924 67.0197 28.2398 67.0197 28.2824C67.0303 28.5193 67.0197 28.7846 66.9774 29.0878L66.9562 29.2251C66.9403 29.3057 66.9297 29.3862 66.9138 29.4668C66.8821 29.6184 66.845 29.7699 66.8026 29.9215C66.6438 30.5042 66.3897 31.158 66.0826 31.7691C65.9291 32.0723 65.765 32.3803 65.585 32.6882C63.8273 33.6215 62.2284 34.55 60.7143 35.5164C59.0254 36.5966 57.6965 37.5488 56.5212 38.5247C55.6688 39.2306 54.7053 40.0881 54.0223 41.0782C53.4029 41.9736 53.2653 42.7079 53.6041 43.2527C53.8688 43.6696 54.4882 44.0391 55.9494 43.4137C57.1406 42.9068 58.1995 42.1252 59.0995 41.4288C60.3278 40.4813 61.5402 39.3822 62.7102 38.1694C64.0232 36.805 65.0926 35.4975 65.9767 34.171C66.1462 33.9199 66.2997 33.6736 66.4479 33.4367C67.7397 32.7545 69.0845 32.096 70.461 31.4612C72.7481 30.4048 75.0881 29.4383 77.4123 28.5951C78.5188 28.1924 79.6306 27.8181 80.7371 27.4628C80.6259 27.5528 80.5147 27.6476 80.4088 27.7329C79.3182 28.6614 78.3388 29.7036 77.5076 30.8311C76.7029 31.9207 76.1576 32.9251 75.8346 33.8915C75.4852 34.9432 75.4905 35.7581 75.8505 36.3881C76.1523 36.9187 76.7188 37.203 77.4441 37.203C77.6294 37.203 77.8253 37.184 78.0264 37.1461C79.1065 36.9472 80.0965 36.3881 81.0071 35.8149C82.1824 35.0759 83.3524 34.1758 84.586 33.0577C85.1207 32.5745 85.6343 32.0818 86.1266 31.5796C86.1266 31.8639 86.1478 32.1434 86.1902 32.4134C86.2907 33.0388 86.5343 33.5741 86.9208 34.0099C87.2808 34.4174 87.789 34.7016 88.4402 34.8532C89.4938 35.0996 90.6797 35.1043 92.0562 34.8674C93.2527 34.659 94.5021 34.28 95.9898 33.6688C97.2392 33.1572 98.5363 32.5177 99.9552 31.7218C100.945 31.1628 101.951 30.5516 102.999 29.8694C102.703 30.5421 102.481 31.2101 102.343 31.8686C102.094 33.0435 102.105 34.0147 102.375 34.8343C102.677 35.7391 103.317 36.3834 104.191 36.644C104.514 36.7434 104.837 36.7813 105.154 36.7813C106.07 36.7813 106.938 36.4402 107.579 36.1039C108.807 35.4549 109.956 34.441 111.01 33.0861C112.1 31.6791 112.91 30.0542 113.355 28.3866L113.36 28.3961ZM81.2983 34.3605C80.8006 34.7158 80.2606 35.0617 79.7735 35.3317C79.5194 35.4738 79.2759 35.6017 79.0429 35.7107C78.937 35.7581 78.8312 35.8054 78.7253 35.8528L78.4659 35.957C78.2488 36.0328 78.0529 36.0897 77.8676 36.1323C77.8253 36.1418 77.7776 36.1513 77.7353 36.156C77.6982 36.1607 77.6611 36.1702 77.6241 36.1749H77.5817C77.5341 36.1844 77.4917 36.1844 77.4441 36.1844C77.4017 36.1844 77.3647 36.1844 77.3223 36.1844H77.2641C77.2641 36.1844 77.2535 36.1844 77.2482 36.1844H77.2111V36.1749C77.2111 36.1749 77.1688 36.1655 77.1476 36.1607C77.1317 36.156 77.1105 36.1465 77.0999 36.1418L77.047 36.1181L77.0311 36.1086C77.0311 36.1086 77.0046 36.0897 76.9941 36.0802L76.9199 36.0044C76.8882 35.9618 76.8564 35.9144 76.8299 35.867C76.8246 35.8481 76.8141 35.8291 76.8088 35.8149L76.7929 35.777C76.7717 35.7202 76.7611 35.6586 76.7452 35.597L76.7346 35.5496V35.5212C76.7293 35.488 76.724 35.4549 76.724 35.4217C76.724 35.3364 76.724 35.2559 76.724 35.1706C76.724 35.0853 76.7399 35.0048 76.7505 34.9195L76.7611 34.8532C76.7717 34.7964 76.7823 34.7395 76.7982 34.6827C76.8882 34.2847 77.0364 33.8678 77.2482 33.413C77.2482 33.413 77.2588 33.3941 77.2641 33.3846L77.3064 33.2946C77.3382 33.233 77.3647 33.1762 77.3964 33.1193C77.46 32.9961 77.5235 32.8777 77.5923 32.7593C77.73 32.5177 77.8835 32.2666 78.0476 32.0202C78.7306 30.9827 79.5088 30.0684 80.4935 29.1351C81.563 28.1261 82.6536 27.3254 83.8183 26.6906C83.9878 26.5959 84.1625 26.5106 84.3319 26.4253C84.5542 26.3637 84.7713 26.3022 84.9937 26.2453C86.2484 25.9184 87.519 25.62 88.7737 25.3594C88.0802 26.2311 87.5084 27.1359 87.0637 28.0739C86.8043 28.6235 86.5978 29.1493 86.4443 29.6515C85.9096 30.2579 85.3378 30.8548 84.7289 31.4517C83.5642 32.5935 82.4365 33.5504 81.2824 34.3747L81.2983 34.3605ZM64.3196 34.6116C64.0496 34.9716 63.7637 35.3364 63.4567 35.7107C62.4667 36.9092 61.3284 38.0936 60.0737 39.2211C59.4913 39.7422 58.9089 40.2302 58.3424 40.6708C58.0618 40.8887 57.7813 41.0971 57.506 41.2914L57.3524 41.4003C57.2889 41.443 57.2307 41.4856 57.1671 41.5282C57.0401 41.6135 56.913 41.694 56.7859 41.7746C56.2618 42.1062 55.8489 42.3289 55.4359 42.5089C55.3935 42.5278 55.3459 42.5468 55.3035 42.5657L55.2082 42.5989C55.1341 42.6226 55.0547 42.651 54.9753 42.67C54.9012 42.6889 54.8218 42.7079 54.7477 42.7221H54.6471L54.61 42.4899H54.6047V42.4947C54.6047 42.4947 54.6047 42.4947 54.6047 42.4899L54.6153 42.4473C54.6312 42.381 54.6524 42.3147 54.6735 42.2531C54.6841 42.2199 54.7 42.1867 54.7212 42.1299L54.7477 42.0825C54.7847 42.0162 54.8165 41.9499 54.8535 41.8835C54.9488 41.7272 55.06 41.5614 55.1924 41.3861C55.2612 41.2961 55.3353 41.2061 55.4094 41.1161L55.4836 41.0308C55.5259 40.9834 55.5683 40.9361 55.6106 40.8887C55.7853 40.6945 55.9759 40.5002 56.1877 40.2965C57.0771 39.439 58.1518 38.5768 59.576 37.5772C60.9472 36.6155 62.5355 35.6207 64.3091 34.6163L64.3196 34.6116Z" fill="white"/>
<path d="M157.403 28.9171C157.303 28.8129 157.144 28.7608 156.99 28.7608C156.842 28.7655 156.715 28.8224 156.63 28.9266C155.434 30.3289 153.766 31.518 151.521 32.5602C150.489 33.0387 149.43 33.4129 148.387 33.6735C147.333 33.9341 146.391 34.0478 145.518 34.0193C145.322 34.0146 145.131 34.0004 144.951 33.9767L144.85 33.9625C144.819 33.9625 144.787 33.953 144.755 33.9483C144.665 33.9341 144.58 33.9151 144.496 33.8962C144.337 33.863 144.178 33.8156 144.03 33.7682C143.961 33.7446 143.892 33.7161 143.823 33.6925L143.802 33.683C143.765 33.6688 143.728 33.6498 143.696 33.6309C143.569 33.5693 143.447 33.503 143.336 33.4319C143.283 33.3987 143.236 33.3656 143.188 33.3277L143.172 33.3135C143.14 33.2898 143.114 33.2661 143.082 33.2377C142.992 33.1571 142.902 33.0718 142.823 32.9818L142.722 32.8587C142.696 32.8208 142.669 32.7829 142.643 32.7402C142.579 32.6407 142.521 32.5365 142.463 32.4276L142.415 32.3233C142.415 32.3233 142.405 32.3044 142.399 32.2949C142.394 32.276 142.389 32.2617 142.383 32.2475L142.346 32.148C142.272 31.9349 142.214 31.6933 142.172 31.4137L142.156 31.2764C142.15 31.2053 142.145 31.1342 142.14 31.0632C142.135 30.9258 142.129 30.7884 142.134 30.651C142.134 30.5042 142.145 30.362 142.161 30.2152C142.166 30.1489 142.172 30.0825 142.182 30.0162L142.193 29.9262C142.193 29.9262 142.193 29.9167 142.193 29.912L142.203 29.8457C142.288 29.2772 142.442 28.6708 142.653 28.0502C142.701 27.9033 142.754 27.7565 142.812 27.6096C142.839 27.5385 142.87 27.4627 142.897 27.3917L142.966 27.2211C143.013 27.1122 143.061 27.0032 143.109 26.8942C143.612 26.5437 144.077 26.1599 144.517 25.7525C144.951 25.3498 145.343 24.9187 145.682 24.4734C145.899 24.1939 146.142 23.8576 146.312 23.488C146.418 23.2654 146.64 22.7964 146.322 22.4742C146.058 22.2042 145.592 22.2421 145.041 22.5737C144.692 22.7822 144.358 23.0806 143.982 23.5117C143.617 23.9334 143.278 24.4024 142.939 24.9519C142.685 25.3641 142.452 25.7857 142.246 26.2168C141.849 26.4821 141.441 26.7237 141.023 26.9416C139.429 27.7754 137.571 28.3107 135.644 28.4908C135.289 28.5239 134.918 28.5429 134.548 28.5571C135.083 27.0695 135.75 25.5393 136.549 23.9476C136.65 23.7486 136.75 23.5496 136.856 23.3506L136.92 23.2843L136.898 23.2701C137.031 23.0001 136.888 22.7253 136.681 22.6021C136.491 22.4884 136.258 22.5027 136.088 22.64L136.057 22.6116L135.988 22.7395C135.3 23.4454 134.558 24.1229 133.928 24.6961C132.171 26.2831 130.487 27.6522 128.777 28.8745C127.655 29.6799 126.596 30.3668 125.548 30.9732C124.367 31.6554 123.25 32.2049 122.233 32.5981C121.646 32.8255 121.095 33.0055 120.55 33.1524C120.269 33.2282 119.994 33.2898 119.724 33.3419C119.438 33.3987 119.232 33.4272 118.977 33.4556C118.718 33.484 118.469 33.4982 118.226 33.503C118.12 33.503 118.014 33.503 117.908 33.503C117.86 33.503 117.813 33.4982 117.765 33.4935H117.712C117.712 33.4935 117.686 33.484 117.675 33.484C117.559 33.4603 117.447 33.4272 117.326 33.394L117.273 33.3798L117.252 33.3703C117.252 33.3703 117.204 33.3466 117.183 33.3324C117.162 33.3182 117.14 33.304 117.114 33.2898C117.087 33.2613 117.061 33.2377 117.029 33.2092C117.013 33.1903 116.992 33.1761 116.976 33.1619C116.971 33.1524 116.96 33.1382 116.955 33.1334C116.955 33.1334 116.955 33.1287 116.95 33.124L116.929 33.0955C116.907 33.0576 116.886 33.0197 116.87 32.9818L116.86 32.9676C116.86 32.9676 116.854 32.9487 116.849 32.9297C116.844 32.906 116.833 32.8823 116.828 32.8587C116.817 32.8208 116.812 32.7829 116.802 32.7497L116.791 32.6976C116.791 32.6976 116.791 32.6739 116.791 32.6597C116.791 32.6265 116.791 32.5886 116.786 32.5555C116.786 32.4844 116.786 32.4181 116.786 32.3518L116.802 32.1812C116.802 32.1812 116.802 32.1623 116.802 32.1528C116.812 32.0959 116.823 32.0391 116.833 31.987C118.411 31.1579 119.819 30.3099 121.106 29.4098C122.604 28.3676 124.298 27.0743 125.489 25.3877C126.564 23.867 126.331 23.0806 125.945 22.6921C125.537 22.2753 124.902 22.3416 124.393 22.4458C123.658 22.5974 122.901 22.9527 122 23.5686C120.333 24.715 118.808 26.2784 117.474 28.2207C116.849 29.1303 116.389 29.9736 116.071 30.8026C116.007 30.9732 115.949 31.1342 115.902 31.2906C115.346 31.5748 114.774 31.8591 114.176 32.148C113.334 32.546 112.466 32.9345 111.592 33.304C111.317 33.4224 111.179 33.6688 111.248 33.9246C111.29 34.0714 111.412 34.2088 111.566 34.2752C111.687 34.3273 111.82 34.3273 111.931 34.2799C113.297 33.7019 114.546 33.1334 115.711 32.5555C115.716 32.726 115.737 32.8918 115.774 33.0529C115.933 33.754 116.479 34.2799 117.241 34.4552C117.527 34.5215 117.818 34.5452 118.099 34.5452C118.289 34.5452 118.475 34.5357 118.655 34.5215C119.221 34.4836 119.819 34.3889 120.423 34.2515C123.229 33.6024 125.791 32.0912 127.48 31.0111C129.423 29.7651 131.382 28.287 133.473 26.4821C133.891 26.122 134.288 25.7715 134.675 25.4256C134.061 26.8137 133.537 28.1733 133.118 29.4856C132.758 30.6131 132.478 31.6696 132.277 32.7071C132.218 32.9913 132.377 33.2519 132.647 33.3277C132.78 33.3656 132.933 33.3466 133.06 33.2756C133.193 33.2045 133.283 33.0861 133.309 32.9534C133.526 31.8496 133.817 30.7363 134.183 29.5993C136.443 29.5662 138.54 29.154 140.414 28.3676C140.816 28.197 141.208 28.0123 141.584 27.8133C141.494 28.0881 141.409 28.3676 141.34 28.6471C140.954 30.1631 140.938 31.3995 141.298 32.437C141.51 33.0482 141.849 33.574 142.283 33.9577C142.775 34.3936 143.384 34.7015 144.104 34.8721C144.612 34.9952 145.158 35.0521 145.745 35.0521C146.095 35.0521 146.46 35.0284 146.846 34.9858C147.921 34.8673 149.043 34.602 150.192 34.1994C152.564 33.3656 154.692 32.148 156.35 30.6794C156.736 30.3336 157.091 29.9783 157.398 29.6183C157.583 29.4003 157.578 29.1019 157.387 28.9076L157.403 28.9171ZM117.59 30.0588C117.813 29.6514 118.062 29.244 118.353 28.8176C118.49 28.6139 118.633 28.415 118.782 28.216L118.903 28.0549C118.903 28.0549 118.914 28.0407 118.914 28.036C118.914 28.0312 118.925 28.0218 118.93 28.017L118.972 27.9649C119.057 27.8559 119.142 27.747 119.226 27.6428C119.904 26.809 120.629 26.051 121.381 25.3877C121.572 25.2219 121.762 25.0609 121.958 24.9045L122.032 24.8429L122.043 24.8335C122.043 24.8335 122.053 24.8287 122.059 24.824L122.186 24.7292C122.286 24.6534 122.387 24.5824 122.488 24.5113C122.879 24.2365 123.25 24.0092 123.61 23.8291C123.689 23.7865 123.774 23.7486 123.859 23.7107L124.06 23.6302C124.24 23.5638 124.404 23.5117 124.568 23.4738C124.632 23.4596 124.695 23.4454 124.759 23.4359L124.96 23.4122C125.013 23.4122 125.071 23.4075 125.14 23.4122C125.14 23.4122 125.166 23.417 125.188 23.4217C125.188 23.4359 125.188 23.4501 125.188 23.4643C125.188 23.4928 125.188 23.5259 125.193 23.5638C125.193 23.5828 125.193 23.6017 125.193 23.6112V23.6254C125.182 23.6681 125.172 23.7107 125.161 23.7486C125.14 23.8339 125.108 23.9097 125.071 24.0139L125.039 24.0802C125.013 24.1371 124.986 24.1892 124.96 24.246C124.843 24.4734 124.695 24.7056 124.51 24.9566L124.409 25.0893C124.356 25.1556 124.303 25.2219 124.251 25.2835C124.129 25.4304 124.007 25.5725 123.88 25.7099C123.308 26.3352 122.625 26.9558 121.783 27.6191C121.603 27.7565 121.349 27.9507 121.127 28.1165C120.873 28.3013 120.613 28.486 120.354 28.6613C119.803 29.0403 119.21 29.4193 118.591 29.7935C118.189 30.0399 117.77 30.2768 117.347 30.5184C117.421 30.362 117.5 30.2104 117.58 30.0588H117.59Z" fill="white"/>
<path d="M144.792 37.3688C141.557 37.0798 138.159 36.9519 134.691 36.9851C131.753 37.0088 128.714 37.1509 125.659 37.402C123.176 37.6057 120.666 37.8852 118.194 38.231C116.394 38.4821 114.732 38.7522 113.106 39.0554C112.947 39.0838 112.789 39.1122 112.63 39.1406C112.074 39.2401 111.502 39.3443 110.925 39.4912C110.623 39.5623 110.528 39.8086 110.586 40.0171C110.639 40.1971 110.809 40.3534 111.047 40.3534C111.089 40.3534 111.131 40.3487 111.179 40.3392C111.746 40.2113 112.317 40.0976 112.894 39.9886C114.393 39.6996 115.949 39.4391 117.649 39.1927C119.968 38.8516 122.35 38.5721 124.727 38.359C127.708 38.0889 130.683 37.9278 133.568 37.8757C136.989 37.8094 140.335 37.9042 143.516 38.141C143.929 38.1742 144.342 38.2074 144.76 38.2453C144.877 38.25 144.999 38.2168 145.099 38.141C145.205 38.0558 145.269 37.9278 145.269 37.8094C145.269 37.5773 145.073 37.3973 144.798 37.3736L144.792 37.3688Z" fill="white"/>
<path d="M50.6975 44.4512H53.1435V44.977H52.2646V46.9573H51.5711V44.977H50.6975V44.4512Z" fill="white"/>
<path d="M54.9859 45.915V46.4598H56.5636V46.9573H54.3135V44.4512H56.5265V44.9486H54.9912V45.4318H56.3571V45.915H54.9912H54.9859Z" fill="white"/>
<path d="M59.6344 44.5605C59.8197 44.6315 59.9627 44.7358 60.0633 44.8731C60.1638 45.0105 60.2115 45.1716 60.2115 45.3564C60.2115 45.5411 60.1586 45.7069 60.058 45.8443C59.9574 45.9817 59.8144 46.0859 59.6238 46.1617C59.4385 46.2375 59.2162 46.2707 58.9621 46.2707H58.4803V46.9529H57.792V44.4468H58.9673C59.2215 44.4468 59.4438 44.4847 59.6291 44.5557L59.6344 44.5605ZM58.9515 45.759C59.1368 45.759 59.2797 45.7259 59.375 45.6548C59.4756 45.5885 59.5232 45.4843 59.5232 45.3516C59.5232 45.219 59.4756 45.1242 59.375 45.0579C59.2744 44.9916 59.1368 44.9584 58.9515 44.9584H58.4803V45.7543H58.9462L58.9515 45.759Z" fill="white"/>
<path d="M62.9539 45.7019L63.8169 44.4512H64.5051V46.9573H63.8434V45.3939L63.0651 46.5025H62.8428L62.0592 45.3939V46.9573H61.3921V44.4512H62.0857L62.9592 45.7019H62.9539Z" fill="white"/>
<path d="M68.751 46.9573H68.0257L67.8351 46.5356H66.5168L66.3209 46.9573H65.6062L66.8345 44.4512H67.5227L68.7563 46.9573H68.751ZM67.1733 45.1002L66.7286 46.0666H67.618L67.1733 45.1002Z" fill="white"/>
<path d="M72.4199 46.9573H71.7263V44.9581H70.7681L70.7416 45.7919C70.7363 46.114 70.6781 46.3651 70.5722 46.5356C70.4663 46.7062 70.334 46.8199 70.1751 46.8767C70.0163 46.9336 69.8257 46.9573 69.6086 46.9573V46.4693C69.741 46.4646 69.8469 46.4172 69.9263 46.3225C70.0057 46.2277 70.0481 46.0572 70.0587 45.8061L70.0957 44.4512H72.4146V46.9573H72.4199Z" fill="white"/>
<path d="M74.9454 45.1097C75.1995 45.1097 75.4219 45.1476 75.6072 45.2281C75.7978 45.3039 75.9407 45.4176 76.0413 45.555C76.1419 45.6971 76.1948 45.8629 76.1948 46.0524C76.1948 46.2419 76.1472 46.3983 76.0466 46.5356C75.946 46.673 75.8031 46.7772 75.6125 46.8483C75.4272 46.9194 75.2048 46.9573 74.9507 46.9573H73.7754V44.4512H74.4689V45.1097H74.9507H74.9454ZM74.9295 46.4504C75.1095 46.4504 75.2472 46.4125 75.3531 46.3414C75.4536 46.2703 75.5066 46.1756 75.5066 46.0524C75.5066 45.915 75.4536 45.8108 75.3531 45.735C75.2525 45.6592 75.1095 45.6213 74.9295 45.6213H74.4636V46.4504H74.9295Z" fill="white"/>
<path d="M79.3024 45.446V44.4512H79.996V46.9573H79.3024V45.9719H78.09V46.9573H77.3965V44.4512H78.09V45.446H79.3024Z" fill="white"/>
<path d="M82.5213 45.1099C82.7755 45.1099 82.9978 45.1478 83.1831 45.2283C83.3737 45.3041 83.5167 45.4178 83.6173 45.5552C83.7178 45.6973 83.7708 45.8631 83.7708 46.0526C83.7708 46.2421 83.7231 46.3984 83.6225 46.5358C83.522 46.6732 83.379 46.7774 83.1884 46.8485C83.0031 46.9195 82.7808 46.9574 82.5266 46.9574H81.3513V44.4514H82.0449V45.1099H82.5266H82.5213ZM82.5055 46.4505C82.6855 46.4505 82.8231 46.4126 82.929 46.3416C83.0296 46.2705 83.0825 46.1758 83.0825 46.0526C83.0825 45.9152 83.0296 45.811 82.929 45.7352C82.8284 45.6594 82.6855 45.6215 82.5055 45.6215H82.0396V46.4505H82.5055ZM84.1361 46.9574V44.314H84.7979V46.9574H84.1361Z" fill="white"/>
<path d="M86.8095 45.915V46.4598H88.3872V46.9573H86.1372V44.4512H88.3502V44.9486H86.8148V45.4318H88.1807V45.915H86.8148H86.8095Z" fill="white"/>
<path d="M93.687 46.9573H92.9299L92.1887 45.9814H91.8022V46.9573H91.114V44.4512H91.8022V45.4271H92.2046L92.8611 44.4512H93.634L92.7023 45.664L93.687 46.9573Z" fill="white"/>
<path d="M96.2863 44.4561H96.964L96.0693 46.3463L96.011 46.46C95.9158 46.6495 95.8099 46.7821 95.6934 46.8579C95.5769 46.9337 95.4128 46.9764 95.201 46.9764C95.1004 46.9764 94.9945 46.9622 94.8728 46.9385C94.751 46.9148 94.6663 46.8816 94.6081 46.8532L94.804 46.4316C94.9151 46.4695 95.0316 46.4884 95.1534 46.4884C95.2169 46.4884 95.2699 46.4789 95.3069 46.4552C95.344 46.4316 95.3757 46.3984 95.4075 46.3463L94.5181 44.4608H95.1957L95.741 45.7446L96.2811 44.4608L96.2863 44.4561Z" fill="white"/>
<path d="M99.9076 44.5605C100.093 44.6315 100.236 44.7358 100.336 44.8731C100.437 45.0105 100.485 45.1716 100.485 45.3564C100.485 45.5411 100.432 45.7069 100.331 45.8443C100.231 45.9817 100.088 46.0859 99.8971 46.1617C99.7118 46.2375 99.4894 46.2707 99.2353 46.2707H98.7535V46.9529H98.0652V44.4468H99.2406C99.4947 44.4468 99.7171 44.4847 99.9023 44.5557L99.9076 44.5605ZM99.2247 45.759C99.41 45.759 99.5529 45.7259 99.6482 45.6548C99.7488 45.5885 99.7965 45.4843 99.7965 45.3516C99.7965 45.219 99.7488 45.1242 99.6482 45.0579C99.5476 44.9916 99.41 44.9584 99.2247 44.9584H98.7535V45.7543H99.2194L99.2247 45.759Z" fill="white"/>
<path d="M102.29 46.8343C102.057 46.7253 101.877 46.569 101.75 46.37C101.623 46.1758 101.554 45.9531 101.554 45.702C101.554 45.4509 101.618 45.233 101.75 45.034C101.882 44.8351 102.062 44.6835 102.29 44.5745C102.518 44.4655 102.777 44.4087 103.068 44.4087C103.359 44.4087 103.614 44.4655 103.847 44.5745C104.079 44.6835 104.259 44.8398 104.387 45.034C104.514 45.233 104.582 45.4509 104.582 45.702C104.582 45.9531 104.519 46.171 104.387 46.37C104.254 46.569 104.074 46.7206 103.847 46.8343C103.619 46.9432 103.359 47.0001 103.068 47.0001C102.777 47.0001 102.523 46.9432 102.29 46.8343ZM103.487 46.37C103.608 46.3037 103.704 46.2184 103.772 46.1C103.841 45.9863 103.878 45.8536 103.878 45.702C103.878 45.5504 103.841 45.4178 103.772 45.3041C103.704 45.1904 103.608 45.0956 103.487 45.034C103.365 44.9677 103.227 44.9393 103.068 44.9393C102.909 44.9393 102.772 44.9724 102.65 45.034C102.528 45.1004 102.428 45.1904 102.359 45.3041C102.29 45.4178 102.253 45.5504 102.253 45.702C102.253 45.8536 102.29 45.9863 102.359 46.1C102.428 46.2137 102.523 46.3037 102.645 46.37C102.767 46.4363 102.909 46.4647 103.063 46.4647C103.217 46.4647 103.354 46.4316 103.481 46.37H103.487Z" fill="white"/>
<path d="M107.68 44.5605C107.865 44.6315 108.008 44.7358 108.108 44.8731C108.209 45.0105 108.257 45.1716 108.257 45.3564C108.257 45.5411 108.204 45.7069 108.103 45.8443C108.003 45.9817 107.86 46.0859 107.669 46.1617C107.484 46.2375 107.261 46.2707 107.007 46.2707H106.525V46.9529H105.837V44.4468H107.012C107.267 44.4468 107.489 44.4847 107.674 44.5557L107.68 44.5605ZM106.997 45.759C107.182 45.759 107.325 45.7259 107.42 45.6548C107.521 45.5885 107.568 45.4843 107.568 45.3516C107.568 45.219 107.521 45.1242 107.42 45.0579C107.32 44.9916 107.182 44.9584 106.997 44.9584H106.525V45.7543H106.991L106.997 45.759Z" fill="white"/>
<path d="M109.194 44.4512H111.64V44.977H110.761V46.9573H110.067V44.977H109.194V44.4512Z" fill="white"/>
<path d="M113.969 45.1099C114.223 45.1099 114.446 45.1478 114.631 45.2283C114.816 45.3041 114.964 45.4178 115.065 45.5552C115.166 45.6973 115.219 45.8631 115.219 46.0526C115.219 46.2421 115.171 46.3984 115.07 46.5358C114.97 46.6732 114.827 46.7774 114.636 46.8485C114.446 46.9195 114.229 46.9574 113.974 46.9574H112.799V44.4514H113.493V45.1099H113.974H113.969ZM113.953 46.4505C114.133 46.4505 114.271 46.4126 114.377 46.3416C114.477 46.2705 114.53 46.1758 114.53 46.0526C114.53 45.9152 114.477 45.811 114.377 45.7352C114.276 45.6594 114.133 45.6215 113.953 45.6215H113.487V46.4505H113.953ZM115.584 46.9574V44.314H116.246V46.9574H115.584Z" fill="white"/>
<path d="M20.3246 0C9.11669 0 0 10.5408 0 23.5024C0 36.464 9.11669 47.0047 20.3246 47.0047C31.5325 47.0047 40.6492 36.464 40.6492 23.5024C40.6492 10.5408 31.5272 0 20.3246 0ZM36.8268 23.5024C36.8268 35.6207 29.4254 45.4793 20.3246 45.4793C11.2238 45.4793 3.82244 35.6207 3.82244 23.5024C3.82244 11.384 11.2238 1.52071 20.3246 1.52071C29.4254 1.52071 36.8268 11.3793 36.8268 23.4976V23.5024Z" fill="white"/>
<path d="M19.88 15.2544H20.7641L22.0559 5.67536C22.1141 5.23004 21.9606 4.78472 21.6271 4.4531C21.2935 4.11674 20.8223 3.92725 20.3194 3.92725C19.8164 3.92725 19.3452 4.11674 19.0117 4.4531C18.6782 4.78946 18.5246 5.23478 18.5829 5.67536L19.8747 15.2544H19.88Z" fill="white"/>
<path d="M12.4943 13.2315C19.4139 15.4912 19.8215 22.441 19.8215 22.5073V22.6684H20.8116L20.8169 22.5073C20.8169 22.4363 21.2298 15.4912 28.1441 13.2315C28.5782 13.0893 28.9223 12.7814 29.0812 12.3929C29.24 12.0092 29.2029 11.5876 28.9806 11.237L28.9488 11.1849C28.5306 10.5311 27.5882 10.2895 26.8523 10.6448C22.4951 12.734 20.9016 16.8698 20.3192 19.7217C19.7368 16.8698 18.1433 12.734 13.7861 10.6448C13.0449 10.2895 12.1078 10.5311 11.6896 11.1849L11.6578 11.237C11.4355 11.5876 11.3984 12.0139 11.5572 12.3977C11.7161 12.7861 12.0602 13.0941 12.4943 13.2362V13.2315Z" fill="white"/>
<path d="M31.8767 31.8641C30.8125 33.5696 28.5625 34.716 26.2701 34.716C23.9777 34.716 21.8494 33.6264 20.7535 31.992C20.7535 31.9825 20.7535 31.973 20.7535 31.9636L20.7799 31.7788H19.8587L19.8852 31.9636C19.8852 31.9636 19.8852 31.9825 19.8852 31.992C18.7893 33.6264 16.5975 34.716 14.3686 34.716C12.1397 34.716 9.82614 33.5696 8.762 31.8641L8.70905 31.7788H7.95728L7.98375 31.9636C8.36493 34.8534 11.1126 37.0326 14.3686 37.0326C17.0316 37.0326 19.3505 35.5735 20.3193 33.4653C21.2882 35.5782 23.6071 37.0326 26.2701 37.0326C29.526 37.0326 32.2737 34.8534 32.6549 31.9636L32.6814 31.7788H31.9296L31.8767 31.8641Z" fill="white"/>
<path d="M20.3247 27.2166C19.6047 23.7346 17.2117 17.6944 9.28623 16.9269C8.79387 16.8796 8.3015 17.0217 7.9362 17.3154C7.5709 17.6091 7.35913 18.0307 7.35913 18.4713V18.5045C7.35913 19.3193 8.05268 19.9873 8.96858 20.0536C13.2887 20.371 16.4334 22.1381 18.3023 25.298C19.7053 27.6667 19.8271 29.9785 19.8271 30.0022V30.1633H20.8171L20.8224 30.0022C20.8224 29.9785 20.9494 27.6714 22.3471 25.298C24.216 22.1334 27.3608 20.371 31.6809 20.0536C32.6021 19.9873 33.2903 19.3193 33.2903 18.5045V18.4713C33.2903 18.0307 33.0785 17.6091 32.7132 17.3154C32.3479 17.0217 31.8556 16.8796 31.3632 16.9269C23.4324 17.6944 21.0447 23.7346 20.3247 27.2166Z" fill="white"/>
<path d="M26.2702 40.2256C24.0519 40.2256 21.9871 39.4298 20.4571 37.9848L20.3247 37.8569L20.1924 37.9848C18.6623 39.4298 16.5976 40.2256 14.3793 40.2256C14.0722 40.2256 13.7546 40.2067 13.4316 40.1735L13.2251 40.1498V40.941L13.3046 40.9884C14.2363 41.5711 15.327 41.8837 16.4652 41.8837C17.9264 41.8837 19.2923 41.3816 20.33 40.4625C21.3677 41.3768 22.7336 41.8837 24.1948 41.8837C25.3331 41.8837 26.4237 41.5758 27.3555 40.9884L27.4349 40.941V40.1498L27.2284 40.1735C26.9055 40.2067 26.5878 40.2256 26.2807 40.2256H26.2702Z" fill="white"/>
</g>
<defs>
<clipPath id="clip0_21_2">
<rect width="174" height="47" fill="white"/>
</clipPath>
</defs>
</svg>
