<svg width="155" height="54" viewBox="0 0 155 54" fill="none" xmlns="http://www.w3.org/2000/svg">
<path d="M41.328 22.364C41.328 15.74 36.54 11.78 28.044 11.348V8.792H23.724V11.348C15.228 11.78 10.404 15.704 10.404 22.364C10.404 28.988 15.228 32.912 23.724 33.344V36.008H28.044V33.344C36.54 32.984 41.328 28.988 41.328 22.364ZM28.044 29.672V15.056C33.732 15.452 36.828 17.9 36.828 22.328C36.828 26.756 33.804 29.24 28.044 29.672ZM14.976 22.364C14.976 17.9 17.928 15.488 23.724 15.056V29.672C18.144 29.204 14.976 26.792 14.976 22.364ZM50.2268 22.04C48.1628 22.04 46.1708 22.568 44.8028 23.624L45.9788 25.808C46.9388 25.016 48.4268 24.536 49.8668 24.536C52.0028 24.536 53.0588 25.568 53.0588 27.32V27.512H49.7468C45.8588 27.512 44.4188 29.192 44.4188 31.328C44.4188 33.56 46.2668 35.168 49.1948 35.168C51.1148 35.168 52.5068 34.544 53.2268 33.44V35H56.0588V27.488C56.0588 23.792 53.9228 22.04 50.2268 22.04ZM49.8188 32.984C48.2828 32.984 47.3708 32.288 47.3708 31.208C47.3708 30.272 47.9228 29.504 49.9628 29.504H53.0588V30.992C52.5548 32.312 51.2828 32.984 49.8188 32.984ZM67.7431 28.328C69.0631 27.8 69.9031 26.768 69.9031 25.52C69.9031 23.408 67.5031 21.992 64.2151 21.992C62.5351 21.992 60.8791 22.352 59.1271 23.168L59.8951 25.376C61.3111 24.752 62.6551 24.44 63.9511 24.44C65.7511 24.44 66.8311 25.016 66.8311 25.952C66.8311 26.888 65.9431 27.416 64.4311 27.416H62.1751V29.432H64.6711C66.2791 29.432 67.1911 29.984 67.1911 30.992C67.1911 32.096 65.9671 32.744 63.9751 32.744C62.3911 32.744 60.7591 32.336 59.5111 31.64L58.6471 33.872C60.1831 34.736 62.1511 35.216 64.1191 35.216C67.6951 35.216 70.2631 33.608 70.2631 31.232C70.2631 29.816 69.3271 28.784 67.7431 28.328ZM80.0727 26.408L76.8327 26.384V22.184H73.8327V35L79.6407 35.024C83.1447 35.048 85.1127 33.44 85.1127 30.632C85.1127 27.968 83.3607 26.408 80.0727 26.408ZM86.7687 35H89.7687V22.184H86.7687V35ZM79.3767 32.816L76.8327 32.792V28.448L79.3767 28.472C81.1527 28.496 82.0887 29.12 82.0887 30.584C82.0887 32.072 81.1287 32.84 79.3767 32.816ZM95.5295 22.184L95.3135 27.128C95.1695 29.792 95.0975 32.528 93.1295 32.528C92.9615 32.528 92.7695 32.504 92.5535 32.456L92.4095 34.976C93.0335 35.144 93.5855 35.24 94.0655 35.24C97.0895 35.24 97.7615 31.832 97.9775 27.272L98.0975 24.728H102.897V35H105.897V22.184H95.5295ZM116.13 35.168C120.114 35.168 122.97 32.432 122.97 28.592C122.97 24.752 120.114 22.04 116.13 22.04C112.194 22.04 109.314 24.752 109.314 28.592C109.314 32.432 112.194 35.168 116.13 35.168ZM116.13 32.6C113.97 32.6 112.338 31.04 112.338 28.592C112.338 26.144 113.97 24.584 116.13 24.584C118.314 24.584 119.946 26.144 119.946 28.592C119.946 31.04 118.314 32.6 116.13 32.6ZM135.701 28.328C136.925 27.8 137.669 26.816 137.669 25.496C137.669 23.384 135.797 22.184 132.677 22.184H126.413V35H132.941C136.397 35 138.077 33.656 138.077 31.4C138.077 29.84 137.285 28.808 135.701 28.328ZM129.269 24.368H132.413C133.949 24.368 134.741 24.872 134.741 25.928C134.741 26.984 133.949 27.536 132.413 27.536H129.269V24.368ZM132.701 32.816H129.269V29.528H132.797C134.429 29.528 135.173 30.08 135.173 31.208C135.173 32.312 134.309 32.816 132.701 32.816Z" fill="#292929"/>
<path d="M5.66 48.13H1.76L0.92 50H0.15L3.35 43H4.08L7.28 50H6.5L5.66 48.13ZM5.39 47.53L3.71 43.77L2.03 47.53H5.39ZM11.1614 44.7C11.6547 44.7 12.1014 44.8133 12.5014 45.04C12.9014 45.26 13.2147 45.5733 13.4414 45.98C13.6681 46.3867 13.7814 46.85 13.7814 47.37C13.7814 47.8967 13.6681 48.3633 13.4414 48.77C13.2147 49.1767 12.9014 49.4933 12.5014 49.72C12.1081 49.94 11.6614 50.05 11.1614 50.05C10.7347 50.05 10.3481 49.9633 10.0014 49.79C9.66141 49.61 9.38141 49.35 9.16141 49.01V51.94H8.45141V44.74H9.13141V45.78C9.34474 45.4333 9.62474 45.1667 9.97141 44.98C10.3247 44.7933 10.7214 44.7 11.1614 44.7ZM11.1114 49.42C11.4781 49.42 11.8114 49.3367 12.1114 49.17C12.4114 48.9967 12.6447 48.7533 12.8114 48.44C12.9847 48.1267 13.0714 47.77 13.0714 47.37C13.0714 46.97 12.9847 46.6167 12.8114 46.31C12.6447 45.9967 12.4114 45.7533 12.1114 45.58C11.8114 45.4067 11.4781 45.32 11.1114 45.32C10.7381 45.32 10.4014 45.4067 10.1014 45.58C9.80807 45.7533 9.57474 45.9967 9.40141 46.31C9.23474 46.6167 9.15141 46.97 9.15141 47.37C9.15141 47.77 9.23474 48.1267 9.40141 48.44C9.57474 48.7533 9.80807 48.9967 10.1014 49.17C10.4014 49.3367 10.7381 49.42 11.1114 49.42ZM17.8569 44.87C18.3435 44.87 18.7769 44.98 19.1569 45.2C19.5435 45.4133 19.8435 45.7167 20.0569 46.11C20.2702 46.4967 20.3769 46.94 20.3769 47.44C20.3769 47.9533 20.2635 48.41 20.0369 48.81C19.8169 49.2033 19.5069 49.51 19.1069 49.73C18.7069 49.95 18.2469 50.06 17.7269 50.06C16.8535 50.06 16.1769 49.7533 15.6969 49.14C15.2169 48.5267 14.9769 47.68 14.9769 46.6C14.9769 45.4733 15.1902 44.61 15.6169 44.01C16.0502 43.41 16.7235 43.0033 17.6369 42.79L19.9969 42.25L20.1169 42.9L17.8969 43.41C17.1435 43.5767 16.5902 43.8733 16.2369 44.3C15.8835 44.72 15.6902 45.3433 15.6569 46.17C15.8702 45.7633 16.1669 45.4467 16.5469 45.22C16.9269 44.9867 17.3635 44.87 17.8569 44.87ZM17.7469 49.47C18.1135 49.47 18.4402 49.3867 18.7269 49.22C19.0202 49.0467 19.2469 48.8067 19.4069 48.5C19.5735 48.1933 19.6569 47.8467 19.6569 47.46C19.6569 47.0733 19.5769 46.7333 19.4169 46.44C19.2569 46.1467 19.0302 45.92 18.7369 45.76C18.4502 45.5933 18.1202 45.51 17.7469 45.51C17.3735 45.51 17.0402 45.5933 16.7469 45.76C16.4602 45.92 16.2335 46.1467 16.0669 46.44C15.9069 46.7333 15.8269 47.0733 15.8269 47.46C15.8269 47.8467 15.9069 48.1933 16.0669 48.5C16.2335 48.8067 16.4635 49.0467 16.7569 49.22C17.0502 49.3867 17.3802 49.47 17.7469 49.47ZM21.8987 44.74H22.6087V48.92L26.1187 44.74H26.7487V50H26.0387V45.82L22.5387 50H21.8987V44.74ZM32.4834 45.37H30.4934V50H29.7834V45.37H27.7934V44.74H32.4834V45.37ZM36.22 44.7C36.7133 44.7 37.16 44.8133 37.56 45.04C37.96 45.26 38.2733 45.5733 38.5 45.98C38.7267 46.3867 38.84 46.85 38.84 47.37C38.84 47.8967 38.7267 48.3633 38.5 48.77C38.2733 49.1767 37.96 49.4933 37.56 49.72C37.1667 49.94 36.72 50.05 36.22 50.05C35.7933 50.05 35.4067 49.9633 35.06 49.79C34.72 49.61 34.44 49.35 34.22 49.01V51.94H33.51V44.74H34.19V45.78C34.4033 45.4333 34.6833 45.1667 35.03 44.98C35.3833 44.7933 35.78 44.7 36.22 44.7ZM36.17 49.42C36.5367 49.42 36.87 49.3367 37.17 49.17C37.47 48.9967 37.7033 48.7533 37.87 48.44C38.0433 48.1267 38.13 47.77 38.13 47.37C38.13 46.97 38.0433 46.6167 37.87 46.31C37.7033 45.9967 37.47 45.7533 37.17 45.58C36.87 45.4067 36.5367 45.32 36.17 45.32C35.7967 45.32 35.46 45.4067 35.16 45.58C34.8667 45.7533 34.6333 45.9967 34.46 46.31C34.2933 46.6167 34.21 46.97 34.21 47.37C34.21 47.77 34.2933 48.1267 34.46 48.44C34.6333 48.7533 34.8667 48.9967 35.16 49.17C35.46 49.3367 35.7967 49.42 36.17 49.42ZM42.1462 44.7C42.8328 44.7 43.3595 44.8733 43.7262 45.22C44.0928 45.56 44.2762 46.0667 44.2762 46.74V50H43.5962V49.18C43.4362 49.4533 43.1995 49.6667 42.8862 49.82C42.5795 49.9733 42.2128 50.05 41.7862 50.05C41.1995 50.05 40.7328 49.91 40.3862 49.63C40.0395 49.35 39.8662 48.98 39.8662 48.52C39.8662 48.0733 40.0262 47.7133 40.3462 47.44C40.6728 47.1667 41.1895 47.03 41.8962 47.03H43.5662V46.71C43.5662 46.2567 43.4395 45.9133 43.1862 45.68C42.9328 45.44 42.5628 45.32 42.0762 45.32C41.7428 45.32 41.4228 45.3767 41.1162 45.49C40.8095 45.5967 40.5462 45.7467 40.3262 45.94L40.0062 45.41C40.2728 45.1833 40.5928 45.01 40.9662 44.89C41.3395 44.7633 41.7328 44.7 42.1462 44.7ZM41.8962 49.49C42.2962 49.49 42.6395 49.4 42.9262 49.22C43.2128 49.0333 43.4262 48.7667 43.5662 48.42V47.56H41.9162C41.0162 47.56 40.5662 47.8733 40.5662 48.5C40.5662 48.8067 40.6828 49.05 40.9162 49.23C41.1495 49.4033 41.4762 49.49 41.8962 49.49ZM50.7763 47.66H49.6363V50H48.9263V47.66H47.7863L46.1763 50H45.3263L47.2163 47.29L45.4763 44.74H46.2463L47.7863 47.05H48.9263V44.74H49.6363V47.05H50.7763L52.3263 44.74H53.0963L51.3563 47.3L53.2463 50H52.3963L50.7763 47.66ZM54.428 44.74H55.138V47.07H58.448V44.74H59.158V50H58.448V47.68H55.138V50H54.428V44.74ZM63.386 46.6C64.046 46.6067 64.5493 46.7533 64.896 47.04C65.2427 47.3267 65.416 47.74 65.416 48.28C65.416 48.84 65.2293 49.27 64.856 49.57C64.4827 49.87 63.9493 50.0167 63.256 50.01L61.176 50V44.74H61.886V46.58L63.386 46.6ZM66.296 44.74H67.006V50H66.296V44.74ZM63.216 49.47C63.7027 49.4767 64.0693 49.38 64.316 49.18C64.5693 48.9733 64.696 48.6733 64.696 48.28C64.696 47.8933 64.5727 47.6067 64.326 47.42C64.0793 47.2333 63.7093 47.1367 63.216 47.13L61.886 47.11V49.45L63.216 49.47ZM69.0276 44.74H69.7376V48.92L73.2476 44.74H73.8776V50H73.1676V45.82L69.6676 50H69.0276V44.74ZM71.4176 43.98C70.9642 43.98 70.6042 43.8667 70.3376 43.64C70.0709 43.4133 69.9342 43.0933 69.9276 42.68H70.4376C70.4442 42.94 70.5376 43.15 70.7176 43.31C70.8976 43.4633 71.1309 43.54 71.4176 43.54C71.7042 43.54 71.9376 43.4633 72.1176 43.31C72.3042 43.15 72.4009 42.94 72.4076 42.68H72.9176C72.9109 43.0933 72.7709 43.4133 72.4976 43.64C72.2309 43.8667 71.8709 43.98 71.4176 43.98ZM82.9995 44.74L80.3695 50.63C80.1562 51.1233 79.9095 51.4733 79.6295 51.68C79.3495 51.8867 79.0129 51.99 78.6195 51.99C78.3662 51.99 78.1295 51.95 77.9095 51.87C77.6895 51.79 77.4995 51.67 77.3395 51.51L77.6695 50.98C77.9362 51.2467 78.2562 51.38 78.6295 51.38C78.8695 51.38 79.0729 51.3133 79.2395 51.18C79.4129 51.0467 79.5729 50.82 79.7195 50.5L79.9495 49.99L77.5995 44.74H78.3395L80.3195 49.21L82.2995 44.74H82.9995ZM88.8257 44.74V50H88.1157V45.37H84.8157V50H84.1057V44.74H88.8257ZM93.554 44.7C94.0473 44.7 94.494 44.8133 94.894 45.04C95.294 45.26 95.6073 45.5733 95.834 45.98C96.0607 46.3867 96.174 46.85 96.174 47.37C96.174 47.8967 96.0607 48.3633 95.834 48.77C95.6073 49.1767 95.294 49.4933 94.894 49.72C94.5007 49.94 94.054 50.05 93.554 50.05C93.1273 50.05 92.7407 49.9633 92.394 49.79C92.054 49.61 91.774 49.35 91.554 49.01V51.94H90.844V44.74H91.524V45.78C91.7373 45.4333 92.0173 45.1667 92.364 44.98C92.7173 44.7933 93.114 44.7 93.554 44.7ZM93.504 49.42C93.8707 49.42 94.204 49.3367 94.504 49.17C94.804 48.9967 95.0373 48.7533 95.204 48.44C95.3773 48.1267 95.464 47.77 95.464 47.37C95.464 46.97 95.3773 46.6167 95.204 46.31C95.0373 45.9967 94.804 45.7533 94.504 45.58C94.204 45.4067 93.8707 45.32 93.504 45.32C93.1307 45.32 92.794 45.4067 92.494 45.58C92.2007 45.7533 91.9673 45.9967 91.794 46.31C91.6273 46.6167 91.544 46.97 91.544 47.37C91.544 47.77 91.6273 48.1267 91.794 48.44C91.9673 48.7533 92.2007 48.9967 92.494 49.17C92.794 49.3367 93.1307 49.42 93.504 49.42ZM99.4802 44.7C100.167 44.7 100.693 44.8733 101.06 45.22C101.427 45.56 101.61 46.0667 101.61 46.74V50H100.93V49.18C100.77 49.4533 100.533 49.6667 100.22 49.82C99.9135 49.9733 99.5468 50.05 99.1202 50.05C98.5335 50.05 98.0668 49.91 97.7202 49.63C97.3735 49.35 97.2002 48.98 97.2002 48.52C97.2002 48.0733 97.3602 47.7133 97.6802 47.44C98.0068 47.1667 98.5235 47.03 99.2302 47.03H100.9V46.71C100.9 46.2567 100.773 45.9133 100.52 45.68C100.267 45.44 99.8968 45.32 99.4102 45.32C99.0768 45.32 98.7568 45.3767 98.4502 45.49C98.1435 45.5967 97.8802 45.7467 97.6602 45.94L97.3402 45.41C97.6068 45.1833 97.9268 45.01 98.3002 44.89C98.6735 44.7633 99.0668 44.7 99.4802 44.7ZM99.2302 49.49C99.6302 49.49 99.9735 49.4 100.26 49.22C100.547 49.0333 100.76 48.7667 100.9 48.42V47.56H99.2502C98.3502 47.56 97.9002 47.8733 97.9002 48.5C97.9002 48.8067 98.0168 49.05 98.2502 49.23C98.4835 49.4033 98.8102 49.49 99.2302 49.49ZM106.85 47.28C107.564 47.4467 107.92 47.8767 107.92 48.57C107.92 49.03 107.75 49.3833 107.41 49.63C107.07 49.8767 106.564 50 105.89 50H103.5V44.74H105.82C106.42 44.74 106.89 44.8567 107.23 45.09C107.57 45.3233 107.74 45.6567 107.74 46.09C107.74 46.3767 107.66 46.6233 107.5 46.83C107.347 47.03 107.13 47.18 106.85 47.28ZM104.19 47.08H105.77C106.177 47.08 106.487 47.0033 106.7 46.85C106.92 46.6967 107.03 46.4733 107.03 46.18C107.03 45.8867 106.92 45.6667 106.7 45.52C106.487 45.3733 106.177 45.3 105.77 45.3H104.19V47.08ZM105.86 49.44C106.314 49.44 106.654 49.3667 106.88 49.22C107.107 49.0733 107.22 48.8433 107.22 48.53C107.22 48.2167 107.117 47.9867 106.91 47.84C106.704 47.6867 106.377 47.61 105.93 47.61H104.19V49.44H105.86ZM113.884 44.74V50H113.174V45.37H110.654L110.584 46.67C110.531 47.7633 110.404 48.6033 110.204 49.19C110.004 49.7767 109.648 50.07 109.134 50.07C108.994 50.07 108.824 50.0433 108.624 49.99L108.674 49.38C108.794 49.4067 108.878 49.42 108.924 49.42C109.198 49.42 109.404 49.2933 109.544 49.04C109.684 48.7867 109.778 48.4733 109.824 48.1C109.871 47.7267 109.911 47.2333 109.944 46.62L110.034 44.74H113.884ZM119.943 44.74V50H119.293V48.26H117.643H117.443L116.223 50H115.453L116.763 48.16C116.356 48.0467 116.043 47.8533 115.823 47.58C115.603 47.3067 115.493 46.96 115.493 46.54C115.493 45.9533 115.693 45.5067 116.093 45.2C116.493 44.8933 117.039 44.74 117.733 44.74H119.943ZM116.213 46.56C116.213 47.34 116.709 47.73 117.703 47.73H119.293V45.37H117.753C116.726 45.37 116.213 45.7667 116.213 46.56ZM126.487 44.7C126.98 44.7 127.424 44.8133 127.817 45.04C128.217 45.2667 128.53 45.5833 128.757 45.99C128.984 46.3967 129.097 46.8567 129.097 47.37C129.097 47.8833 128.984 48.3433 128.757 48.75C128.53 49.1567 128.217 49.4767 127.817 49.71C127.424 49.9367 126.98 50.05 126.487 50.05C126.02 50.05 125.597 49.95 125.217 49.75C124.837 49.5433 124.527 49.26 124.287 48.9C124.054 48.54 123.917 48.1267 123.877 47.66H122.677V50H121.967V44.74H122.677V47.01H123.887C123.94 46.5567 124.084 46.1567 124.317 45.81C124.557 45.4567 124.864 45.1833 125.237 44.99C125.61 44.7967 126.027 44.7 126.487 44.7ZM126.487 49.43C126.847 49.43 127.17 49.3433 127.457 49.17C127.75 48.9967 127.98 48.7533 128.147 48.44C128.314 48.1267 128.397 47.77 128.397 47.37C128.397 46.97 128.314 46.6133 128.147 46.3C127.98 45.9867 127.75 45.7467 127.457 45.58C127.17 45.4067 126.847 45.32 126.487 45.32C126.127 45.32 125.8 45.4067 125.507 45.58C125.22 45.7467 124.994 45.9867 124.827 46.3C124.66 46.6133 124.577 46.97 124.577 47.37C124.577 47.77 124.66 48.1267 124.827 48.44C124.994 48.7533 125.22 48.9967 125.507 49.17C125.8 49.3433 126.127 49.43 126.487 49.43ZM137.879 44.74V50H130.619V44.74H131.329V49.38H133.909V44.74H134.619V49.38H137.169V44.74H137.879ZM138.689 49.38V51.15H138.019V50H137.129V49.38H138.689ZM139.906 44.74H140.616V48.92L144.126 44.74H144.756V50H144.046V45.82L140.546 50H139.906V44.74ZM146.791 44.74H147.501V48.92L151.011 44.74H151.641V50H150.931V45.82L147.431 50H146.791V44.74ZM149.181 43.98C148.728 43.98 148.368 43.8667 148.101 43.64C147.835 43.4133 147.698 43.0933 147.691 42.68H148.201C148.208 42.94 148.301 43.15 148.481 43.31C148.661 43.4633 148.895 43.54 149.181 43.54C149.468 43.54 149.701 43.4633 149.881 43.31C150.068 43.15 150.165 42.94 150.171 42.68H150.681C150.675 43.0933 150.535 43.4133 150.261 43.64C149.995 43.8667 149.635 43.98 149.181 43.98Z" fill="#292929"/>
</svg>
