<svg width="418" height="381" viewBox="0 0 418 381" fill="none" xmlns="http://www.w3.org/2000/svg">
<path d="M29.8803 230.863C22.5767 230.863 15.6148 233.668 10.3799 238.633V211.821H51.0359V206.498H0V286.97H29.8803C45.4591 286.97 58.1237 274.395 58.1237 258.925C58.1237 243.456 45.4591 230.881 29.8803 230.881V230.863ZM46.8263 259.64C46.8263 271.787 37.7417 281.647 26.5883 281.647H10.3799V246.475C14.1936 240.92 20.2201 237.633 26.5883 237.633C37.7417 237.633 46.8263 247.511 46.8263 259.64Z" fill="white"/>
<path d="M136.484 218.45C129.756 210.001 120.996 205.571 110.993 205.571C90.5935 205.571 73.9893 224.041 73.9893 246.744C73.9893 269.448 90.5935 287.918 110.993 287.918C120.996 287.918 129.756 283.488 136.484 275.039V286.989H146.864V206.5H136.484V218.45ZM136.484 228.882V264.589C131.501 274.771 122.345 281.094 112.558 281.094C97.5553 281.094 85.3586 265.679 85.3586 246.744C85.3586 227.81 97.5553 212.377 112.558 212.377C122.345 212.377 131.501 218.7 136.484 228.882V228.882Z" fill="white"/>
<path d="M228.662 206.498H185.631L185.703 210.642C185.415 252.531 173.434 275.02 169.225 281.647H160.122V286.97H236.649V281.647H228.68V206.498H228.662ZM218.282 211.821V281.647H176.546C181.044 273.662 191.19 251.316 191.621 211.821H218.282Z" fill="white"/>
<path d="M407.62 206.498V241.456H363.402V206.498H353.022V286.97H363.402V246.779H407.62V286.97H418V206.498H407.62Z" fill="white"/>
<path d="M331.849 246.351C331.651 223.862 313.733 205.571 291.894 205.571C270.055 205.571 251.94 224.041 251.94 246.744C251.94 269.448 269.857 287.918 291.894 287.918C310.118 287.918 326.038 275.236 330.589 257.069L330.949 255.622H325.534L325.283 256.444C320.479 272.038 307.815 282.113 293.028 282.113C276.118 282.113 263.291 267.304 262.967 247.548H331.867V246.369L331.849 246.351ZM263.183 242.207C264.982 224.398 277.395 210.626 291.894 210.626C306.394 210.626 318.806 224.398 320.605 242.207H263.183V242.207Z" fill="white"/>
<path d="M258.855 312.639C260.96 303.869 260.546 294.669 257.578 285.345C255.005 277.217 250.814 269.501 245.093 262.427C239.013 254.889 231.187 248.351 222.463 243.51C212.533 238.009 201.253 234.508 188.894 233.079C180.853 232.15 174.431 232.078 168.656 232.882C162.648 233.704 158.025 235.508 154.553 238.384C151.423 240.974 149.534 244.582 149.246 248.566C148.904 253.192 150.829 257.318 152.484 259.98C153.635 261.802 155.056 263.588 156.729 265.267C157.215 265.767 157.863 265.946 158.51 265.785C159.212 265.607 159.788 265.035 159.986 264.338C160.165 263.677 159.986 263.017 159.482 262.516C157.809 260.819 156.694 259.426 155.632 257.658C155.146 256.872 154.715 256.014 154.319 255.121L154.229 254.925C154.229 254.925 154.211 254.871 154.193 254.835C154.121 254.621 154.031 254.407 153.959 254.21C153.797 253.764 153.653 253.317 153.545 252.853C153.437 252.477 153.365 252.102 153.294 251.709C153.258 251.513 153.222 251.334 153.204 251.138C153.204 251.066 153.204 250.995 153.186 250.923L153.15 250.638C153.096 249.887 153.096 249.119 153.168 248.244V248.048C153.222 247.851 153.258 247.655 153.294 247.476C153.383 247.065 153.491 246.654 153.617 246.261C153.671 246.1 153.725 245.922 153.797 245.761L153.905 245.511C154.085 245.118 154.283 244.743 154.499 244.368C154.679 244.046 154.895 243.743 155.11 243.439L155.344 243.135C155.506 242.957 155.65 242.76 155.812 242.582C156.082 242.296 156.37 242.01 156.658 241.742C156.819 241.599 156.999 241.438 157.161 241.295L157.611 240.938C158.438 240.349 159.284 239.813 160.129 239.384C161.137 238.866 161.82 238.58 163.008 238.169C168.728 236.222 174.791 236.151 180.511 236.347C192.6 236.794 204.203 239.331 214.098 243.689C223.218 247.708 231.223 253.228 237.898 260.105C243.87 266.25 248.565 273.252 251.857 280.897L252.001 281.237C252.001 281.237 252.019 281.272 252.037 281.308C252.037 281.326 252.037 281.344 252.055 281.362L252.289 281.933C252.487 282.415 252.667 282.916 252.865 283.398C253.206 284.291 253.512 285.184 253.8 286.095C254.376 287.881 254.862 289.686 255.257 291.436C255.455 292.311 255.617 293.187 255.761 294.062C255.833 294.491 255.905 294.919 255.959 295.366L256.085 296.384C256.283 298.081 256.373 299.76 256.373 301.368C256.409 313.122 251.498 325.179 243.276 333.61C241.423 335.504 239.768 336.879 237.898 338.04C236.962 338.63 236.099 339.094 235.235 339.451C235.217 339.451 235.199 339.451 235.181 339.469L234.839 339.594C234.623 339.683 234.408 339.755 234.174 339.826C233.706 339.987 233.238 340.112 232.789 340.201C232.609 340.237 232.429 340.273 232.267 340.291L231.925 340.326C231.511 340.362 231.098 340.362 230.684 340.344C230.54 340.344 230.396 340.344 230.252 340.309H230.054C229.712 340.219 229.389 340.148 229.047 340.059L228.543 339.88C228.273 339.737 228.003 339.594 227.734 339.433C227.662 339.38 227.59 339.344 227.5 339.273C227.464 339.237 227.41 339.201 227.338 339.148C227.104 338.951 226.888 338.719 226.654 338.433L226.582 338.362C226.582 338.362 226.51 338.254 226.474 338.201L226.384 338.076C226.204 337.808 226.043 337.522 225.899 337.218L225.647 336.682C225.521 336.343 225.413 336.004 225.305 335.646C225.215 335.343 225.143 335.021 225.089 334.718C225.053 334.539 225.017 334.36 224.999 334.182L224.945 333.878C224.945 333.878 224.945 333.842 224.945 333.824C224.855 332.967 224.819 332.199 224.819 331.449C224.819 330.627 224.873 329.752 224.963 328.876L224.999 328.644C224.999 328.644 224.999 328.519 225.017 328.466C225.017 328.466 225.017 328.412 225.017 328.394C225.035 328.216 225.071 328.019 225.089 327.84C225.161 327.358 225.251 326.876 225.341 326.394C225.719 324.518 226.276 322.589 226.978 320.642C227.68 318.73 228.489 316.926 229.532 315.015C229.892 314.336 230.306 313.675 230.702 313.032C232.807 311.389 234.929 309.692 237.034 307.941C239.732 305.708 242.359 303.44 244.859 301.225L245.489 300.671C246.532 299.742 247.612 298.778 248.619 297.777L248.781 297.635C249.627 296.831 249.483 295.777 248.907 295.08C248.493 294.473 247.738 294.08 246.838 294.383C239.319 296.866 232.627 302.547 227.698 310.496C227.59 310.585 227.482 310.674 227.356 310.764C223.236 313.943 219.333 316.73 215.465 319.32C210.877 322.374 206.65 324.893 202.53 327.019C201.451 327.572 200.354 328.126 199.256 328.644C198.717 328.894 198.177 329.144 197.619 329.394L196.504 329.895V329.93C196.504 329.93 196.396 329.948 196.324 329.984L196.252 330.002H196.216C193.967 330.949 191.917 331.699 189.92 332.306C187.851 332.931 185.8 333.378 183.839 333.664H183.803C183.803 333.664 183.803 333.664 183.785 333.664L183.588 333.699L183.354 333.717C183.12 333.753 182.868 333.771 182.634 333.789C182.166 333.824 181.681 333.86 181.213 333.878C180.26 333.914 179.342 333.914 178.461 333.842C178.245 333.842 178.011 333.807 177.795 333.789L177.489 333.753H177.399C176.968 333.682 176.536 333.61 176.104 333.521C175.69 333.431 175.277 333.324 174.863 333.217C174.665 333.164 174.449 333.092 174.251 333.021L174.125 332.985C174.125 332.985 173.999 332.931 173.927 332.896C173.604 332.735 173.298 332.556 172.938 332.288L172.686 332.056C172.542 331.931 172.398 331.788 172.272 331.645C172.236 331.609 172.164 331.52 172.11 331.449L171.948 331.252C171.859 331.127 171.787 331.02 171.697 330.895C171.499 330.573 171.319 330.234 171.121 329.805L170.977 329.412C170.905 329.198 170.833 328.984 170.779 328.769C170.653 328.323 170.545 327.858 170.473 327.358L170.401 326.858C170.365 326.59 170.347 326.34 170.347 326.072C170.311 325.518 170.311 324.964 170.329 324.411C170.383 322.75 170.617 321.053 171.067 319.195C175.96 312.961 180.026 306.477 183.228 299.814C183.786 298.635 184.343 297.402 184.919 296.045L185.063 295.687C185.063 295.687 185.117 295.562 185.135 295.509C185.476 294.669 184.973 293.651 184.271 293.24C183.516 292.794 182.526 292.919 181.915 293.544C181.861 293.615 181.789 293.669 181.735 293.723H181.699L181.663 293.794C179.99 295.509 178.461 297.277 177.039 299.099C177.039 299.028 177.039 298.956 177.003 298.885C176.806 298.01 175.996 297.224 174.881 297.331C174.773 297.331 174.683 297.295 174.557 297.295C168.8 297.295 163.458 299.081 158.78 301.6C154.985 302.743 151.171 303.976 147.357 305.315C138.812 308.334 130.159 311.853 121.65 315.801C115.138 318.82 108.752 322.071 102.581 325.5C103.499 323.25 104.201 321.106 104.686 318.963C105.514 315.354 106.197 310.781 104.093 307.423C102.617 305.048 99.8831 303.744 96.4291 303.744H96.3931C92.3995 303.744 88.5498 305.173 85.3117 306.566C81.2281 308.316 76.9646 310.71 72.3054 313.907C67.5741 317.158 62.8969 320.892 58.4176 325.018C54.4779 328.644 50.826 332.485 47.498 336.45C49.8726 330.734 52.3372 325.179 54.9096 319.838C58.4535 312.443 62.2133 305.333 66.081 298.706C69.3191 293.133 72.6831 287.864 76.0651 282.987C77.4683 280.951 78.9075 278.968 80.3106 277.092C80.6344 276.646 80.9762 276.217 81.3 275.771L81.7858 275.127L82.0556 274.77C82.6313 274.038 83.2249 273.305 83.8186 272.573C83.9625 272.412 84.5021 271.787 85.0238 271.18C85.1678 271.019 85.2937 270.876 85.4196 270.733C87.2545 270.215 89.1254 269.733 91.0863 269.268C101.142 266.893 107.636 266.464 117.459 265.821L120.517 265.624C122.154 265.517 123.809 265.41 125.446 265.339C126.166 265.303 126.777 264.928 127.101 264.303C127.443 263.642 127.407 262.838 127.029 262.231C126.687 261.695 126.094 261.409 125.392 261.445L121.614 261.623C111.432 262.106 104.075 262.463 93.3709 264.767C83.4947 266.893 75.0577 269.59 67.5921 273.038C60.9361 276.11 55.7192 279.504 51.6895 283.38C47.9298 286.988 45.5731 290.739 44.6737 294.509C43.7922 298.188 44.4398 301.975 46.4366 304.869C46.7245 305.298 47.0483 305.691 47.3721 306.084C47.6779 306.459 48.1276 306.673 48.6493 306.691C48.6853 306.691 48.7213 306.691 48.7393 306.691C49.279 306.691 49.8186 306.477 50.1784 306.119C50.916 305.387 50.934 304.262 50.2144 303.404L49.9266 303.047C49.8546 302.94 49.7827 302.85 49.7107 302.743C49.5128 302.44 49.3149 302.136 49.153 301.814C49.0811 301.671 48.9911 301.511 48.8832 301.261C48.8832 301.261 48.8472 301.171 48.8292 301.118C48.7033 300.778 48.5774 300.439 48.4874 300.1C48.3975 299.796 48.3435 299.492 48.2716 299.099C48.2716 299.046 48.2716 299.01 48.2536 298.956C48.2536 298.938 48.2536 298.921 48.2536 298.885C48.2356 298.706 48.2176 298.528 48.2176 298.349C48.2176 297.974 48.2176 297.599 48.2176 297.242C48.2176 297.063 48.2356 296.884 48.2536 296.706C48.2536 296.706 48.2536 296.67 48.2536 296.652C48.2536 296.652 48.2536 296.473 48.2716 296.402C48.3975 295.634 48.6134 294.83 48.8832 294.026C48.9552 293.83 49.0271 293.633 49.0991 293.437C49.1171 293.383 49.171 293.258 49.189 293.222L49.243 293.097C49.4229 292.687 49.6388 292.294 49.8546 291.883C50.3223 291.043 50.862 290.204 51.4917 289.364L51.6176 289.203L51.6356 289.168C51.6356 289.168 51.6536 289.132 51.6715 289.114L51.7795 288.971C51.9594 288.739 52.1393 288.525 52.3372 288.31C52.7149 287.881 53.0927 287.453 53.4885 287.042C54.298 286.202 55.1795 285.363 56.1509 284.559C56.6366 284.148 57.1223 283.755 57.626 283.362L57.698 283.309C57.698 283.309 57.7699 283.255 57.8059 283.237L58.3276 282.862C58.6334 282.648 58.9393 282.415 59.2451 282.201C61.6916 280.486 64.39 278.914 67.4662 277.396C70.7943 275.753 73.9244 274.449 77.918 273.055C78.1519 272.966 78.3858 272.895 78.6196 272.823C77.0366 274.86 75.4355 277.003 73.8165 279.289C70.4884 283.97 67.1784 289.078 63.9583 294.473C60.1086 300.921 56.3488 307.852 52.8049 315.086C48.6853 323.446 44.7456 332.395 41.0938 341.684C40.1583 344.06 39.2409 346.489 38.3234 348.936C37.2081 350.74 36.1827 352.562 35.2293 354.367C32.279 360.065 30.2642 365.638 29.2748 370.89C28.7531 373.658 28.4833 376.356 28.4653 378.946C28.4113 379.357 28.5012 379.714 28.6811 380.035C28.6811 380.035 28.6811 380.071 28.6991 380.071C28.7351 380.143 28.7891 380.214 28.843 380.268C28.987 380.446 29.1489 380.607 29.3647 380.732C29.6885 380.911 30.0483 381 30.4081 381C30.4081 381 30.4081 381 30.4261 381C30.534 381 30.642 380.964 30.7499 380.946C30.8219 380.946 30.8758 380.946 30.9478 380.911C31.0737 380.875 31.1816 380.821 31.3076 380.768C31.3615 380.75 31.3975 380.732 31.4515 380.714C31.4515 380.714 31.4695 380.714 31.4875 380.696C31.5594 380.661 31.6134 380.607 31.6853 380.553C31.7933 380.464 31.8832 380.393 31.9552 380.285C31.9912 380.25 32.0092 380.214 32.0451 380.178C32.1711 380 32.279 379.803 32.333 379.571C35.2472 369.568 38.4673 359.85 41.9033 350.598C42.353 349.883 42.8028 349.186 43.2705 348.472C46.4726 343.649 50.1424 339.04 54.4959 334.378C58.5435 330.055 62.9149 326.001 67.4842 322.303C71.7837 318.838 76.1551 315.819 80.4366 313.354C82.5593 312.139 84.5381 311.121 86.481 310.263L87.6683 309.745C88.118 309.567 88.5857 309.388 89.0535 309.21C89.9889 308.87 90.8524 308.584 91.7159 308.352C92.5614 308.12 93.3529 307.941 94.1265 307.816C94.2884 307.781 94.4503 307.763 94.6122 307.745C94.6122 307.745 94.6122 307.745 94.6302 307.745L94.954 307.709C95.2958 307.673 95.6556 307.656 95.9974 307.638C96.3212 307.638 96.645 307.638 96.9868 307.638C97.1307 307.638 97.2746 307.656 97.4905 307.673H97.5804C98.0482 307.763 98.4979 307.888 99.0016 308.066C99.0016 308.066 99.1455 308.12 99.2175 308.156C99.3254 308.209 99.4333 308.263 99.5413 308.334C99.6132 308.388 99.7032 308.424 99.8651 308.531C100.045 308.692 100.225 308.87 100.405 309.049L100.639 309.388C100.711 309.513 100.783 309.656 100.854 309.781L100.944 309.978C100.944 309.978 101.016 310.138 101.034 310.174C101.088 310.317 101.124 310.442 101.16 310.585C101.214 310.781 101.25 310.978 101.286 311.174L101.358 311.692C101.358 311.871 101.394 312.05 101.394 312.211C101.43 313.104 101.394 314.104 101.25 315.247L101.178 315.765C101.124 316.069 101.088 316.373 101.034 316.676C100.926 317.248 100.801 317.819 100.657 318.391C100.117 320.588 99.2534 323.053 98.2101 325.357C97.6884 326.501 97.1307 327.662 96.5191 328.823C90.5466 332.342 85.1138 335.843 79.9688 339.487C74.2302 343.56 69.7149 347.15 65.7213 350.83C62.825 353.491 59.5509 356.724 57.2303 360.458C55.1255 363.834 54.6578 366.603 55.8091 368.657C56.7086 370.229 58.8133 371.622 63.7784 369.264C67.826 367.353 71.4239 364.405 74.4821 361.78C78.6556 358.207 82.7752 354.063 86.7508 349.49C91.2122 344.346 94.8461 339.415 97.8503 334.414C98.4259 333.467 98.9476 332.538 99.4513 331.645C103.841 329.073 108.41 326.59 113.087 324.196C120.859 320.213 128.81 316.569 136.707 313.389C140.467 311.871 144.245 310.46 148.005 309.12C147.627 309.46 147.249 309.817 146.889 310.138C143.183 313.64 139.855 317.569 137.031 321.821C134.297 325.929 132.444 329.716 131.346 333.36C130.159 337.326 130.177 340.398 131.4 342.774C132.426 344.774 134.351 345.846 136.815 345.846C137.445 345.846 138.11 345.775 138.794 345.632C142.464 344.881 145.828 342.774 148.922 340.612C152.916 337.826 156.891 334.432 161.083 330.216C162.9 328.394 164.645 326.536 166.318 324.643C166.318 325.715 166.39 326.769 166.534 327.787C166.875 330.145 167.703 332.163 169.016 333.807C170.239 335.343 171.966 336.415 174.179 336.986C177.759 337.915 181.789 337.933 186.466 337.04C190.532 336.254 194.777 334.825 199.832 332.52C204.078 330.591 208.485 328.18 213.306 325.179C216.67 323.071 220.088 320.767 223.65 318.195C222.643 320.731 221.887 323.25 221.419 325.733C220.574 330.163 220.61 333.824 221.527 336.915C222.553 340.326 224.729 342.756 227.698 343.738C228.795 344.113 229.892 344.256 230.972 344.256C234.084 344.256 237.034 342.97 239.211 341.702C243.384 339.255 247.288 335.432 250.868 330.323C254.574 325.018 257.326 318.891 258.837 312.603L258.855 312.639ZM149.912 335.128C148.221 336.468 146.386 337.772 144.731 338.79C143.867 339.326 143.04 339.808 142.248 340.219C141.888 340.398 141.528 340.577 141.169 340.755L140.287 341.148C139.55 341.434 138.884 341.648 138.254 341.809C138.11 341.845 137.949 341.881 137.805 341.898C137.679 341.916 137.553 341.952 137.427 341.97H137.283C137.121 342.006 136.977 342.006 136.815 342.006C136.671 342.006 136.545 342.006 136.402 342.006H136.204C136.204 342.006 136.168 342.006 136.15 342.006H136.024V341.97C136.024 341.97 135.88 341.934 135.808 341.916C135.754 341.898 135.682 341.863 135.646 341.845L135.466 341.755L135.412 341.72C135.412 341.72 135.322 341.648 135.286 341.613L135.034 341.327C134.926 341.166 134.818 340.987 134.728 340.809C134.71 340.737 134.675 340.666 134.657 340.612L134.603 340.469C134.531 340.255 134.495 340.023 134.441 339.791L134.405 339.612V339.505C134.387 339.38 134.369 339.255 134.369 339.13C134.369 338.808 134.369 338.504 134.369 338.183C134.369 337.861 134.423 337.558 134.459 337.236L134.495 336.986C134.531 336.772 134.567 336.557 134.621 336.343C134.926 334.843 135.43 333.271 136.15 331.556C136.15 331.556 136.186 331.484 136.204 331.449L136.348 331.109C136.455 330.877 136.545 330.663 136.653 330.448C136.869 329.984 137.085 329.537 137.319 329.091C137.787 328.18 138.308 327.233 138.866 326.304C141.187 322.392 143.831 318.945 147.177 315.426C150.811 311.621 154.517 308.602 158.474 306.209C159.05 305.851 159.644 305.53 160.219 305.208C160.975 304.976 161.713 304.744 162.468 304.53C166.732 303.297 171.049 302.172 175.312 301.189C172.956 304.476 171.013 307.888 169.502 311.425C168.62 313.497 167.919 315.479 167.397 317.373C165.58 319.659 163.637 321.91 161.569 324.161C157.611 328.466 153.779 332.074 149.858 335.182L149.912 335.128ZM92.2196 336.075C91.3021 337.433 90.3307 338.808 89.2873 340.219C85.9233 344.739 82.0556 349.204 77.7921 353.456C75.8133 355.42 73.8344 357.26 71.9096 358.922C70.9561 359.743 70.0027 360.529 69.0673 361.262L68.5456 361.672C68.3297 361.833 68.1318 361.994 67.916 362.155C67.4842 362.476 67.0525 362.78 66.6207 363.084C64.8398 364.334 63.4366 365.174 62.0334 365.852C61.8895 365.924 61.7276 365.995 61.5837 366.067L61.2599 366.192C61.008 366.281 60.7382 366.388 60.4683 366.46C60.2165 366.531 59.9467 366.603 59.6948 366.656H59.353L59.2271 365.781H59.2091V365.799C59.2091 365.799 59.2091 365.799 59.2091 365.781L59.2451 365.62C59.299 365.37 59.371 365.12 59.4429 364.888C59.4789 364.763 59.5329 364.638 59.6049 364.423L59.6948 364.245C59.8207 363.995 59.9287 363.745 60.0546 363.494C60.3784 362.905 60.7562 362.28 61.2059 361.619C61.4398 361.279 61.6916 360.94 61.9435 360.601L62.1953 360.279C62.3393 360.101 62.4832 359.922 62.6271 359.743C63.2207 359.011 63.8683 358.279 64.5879 357.51C67.6101 354.277 71.262 351.026 76.1011 347.257C80.7604 343.631 86.1572 339.88 92.1836 336.093L92.2196 336.075Z" fill="white"/>
<path d="M408.51 314.607C408.168 314.214 407.628 314.017 407.106 314.017C406.603 314.035 406.171 314.25 405.883 314.643C401.818 319.93 396.151 324.414 388.523 328.343C385.015 330.148 381.418 331.559 377.874 332.541C374.294 333.524 371.092 333.952 368.123 333.845C367.458 333.827 366.81 333.774 366.199 333.684L365.857 333.631C365.749 333.631 365.641 333.595 365.533 333.577C365.227 333.524 364.939 333.452 364.651 333.381C364.112 333.256 363.572 333.077 363.068 332.898C362.835 332.809 362.601 332.702 362.367 332.613L362.295 332.577C362.169 332.523 362.043 332.452 361.935 332.38C361.503 332.148 361.09 331.898 360.712 331.63C360.532 331.505 360.37 331.38 360.208 331.237L360.154 331.184C360.046 331.094 359.956 331.005 359.848 330.898C359.543 330.594 359.237 330.273 358.967 329.933L358.625 329.469C358.535 329.326 358.445 329.183 358.355 329.022C358.139 328.647 357.941 328.254 357.744 327.843L357.582 327.45C357.582 327.45 357.546 327.379 357.528 327.343C357.51 327.272 357.492 327.218 357.474 327.164L357.348 326.789C357.096 325.986 356.898 325.075 356.754 324.021L356.7 323.503C356.682 323.235 356.664 322.967 356.646 322.699C356.628 322.181 356.61 321.663 356.628 321.145C356.628 320.591 356.664 320.055 356.718 319.501C356.736 319.251 356.754 319.001 356.79 318.751L356.826 318.412C356.826 318.412 356.826 318.376 356.826 318.358L356.862 318.108C357.15 315.965 357.672 313.678 358.391 311.338C358.553 310.784 358.733 310.231 358.931 309.677C359.021 309.409 359.129 309.123 359.219 308.855L359.453 308.212C359.614 307.801 359.776 307.39 359.938 306.98C361.647 305.658 363.23 304.211 364.723 302.675C366.199 301.156 367.53 299.531 368.681 297.852C369.419 296.798 370.246 295.53 370.822 294.136C371.182 293.297 371.937 291.528 370.858 290.314C369.958 289.295 368.375 289.438 366.504 290.689C365.317 291.475 364.184 292.6 362.907 294.226C361.665 295.815 360.514 297.584 359.363 299.656C358.499 301.21 357.708 302.8 357.006 304.425C355.657 305.426 354.272 306.337 352.85 307.158C347.436 310.302 341.121 312.321 334.573 312.999C333.368 313.124 332.109 313.196 330.849 313.249C332.666 307.64 334.933 301.871 337.649 295.869C337.991 295.119 338.333 294.368 338.693 293.618L338.909 293.368L338.837 293.315C339.286 292.296 338.801 291.26 338.099 290.796C337.452 290.367 336.66 290.421 336.084 290.939L335.976 290.832L335.743 291.314C333.404 293.976 330.885 296.53 328.745 298.691C322.772 304.675 317.052 309.838 311.241 314.446C307.427 317.483 303.829 320.073 300.268 322.359C296.256 324.932 292.46 327.004 289.006 328.486C287.009 329.344 285.138 330.023 283.286 330.576C282.332 330.862 281.397 331.094 280.479 331.291C279.508 331.505 278.806 331.612 277.943 331.719C277.061 331.827 276.216 331.88 275.388 331.898C275.028 331.898 274.669 331.898 274.309 331.898C274.147 331.898 273.985 331.88 273.823 331.862H273.643C273.643 331.862 273.553 331.827 273.517 331.827C273.122 331.737 272.744 331.612 272.33 331.487L272.15 331.434L272.078 331.398C272.078 331.398 271.916 331.309 271.844 331.255C271.772 331.201 271.7 331.148 271.61 331.094C271.521 330.987 271.431 330.898 271.323 330.791C271.269 330.719 271.197 330.666 271.143 330.612C271.125 330.576 271.089 330.523 271.071 330.505C271.071 330.505 271.071 330.487 271.053 330.469L270.981 330.362C270.909 330.219 270.837 330.076 270.783 329.933L270.747 329.88C270.747 329.88 270.729 329.808 270.711 329.737C270.693 329.647 270.657 329.558 270.639 329.469C270.603 329.326 270.585 329.183 270.549 329.058L270.513 328.861C270.513 328.861 270.513 328.772 270.513 328.719C270.513 328.594 270.513 328.451 270.495 328.326C270.495 328.058 270.495 327.808 270.495 327.557L270.549 326.914C270.549 326.914 270.549 326.843 270.549 326.807C270.585 326.593 270.621 326.379 270.657 326.182C276.018 323.056 280.803 319.859 285.174 316.465C290.265 312.535 296.022 307.658 300.07 301.299C303.721 295.565 302.93 292.6 301.617 291.135C300.232 289.563 298.073 289.813 296.346 290.206C293.845 290.778 291.273 292.118 288.215 294.44C282.548 298.763 277.367 304.657 272.834 311.981C270.711 315.411 269.146 318.59 268.067 321.716C267.851 322.359 267.653 322.967 267.491 323.556C265.602 324.628 263.659 325.7 261.626 326.789C258.766 328.29 255.816 329.755 252.848 331.148C251.912 331.594 251.444 332.523 251.678 333.488C251.822 334.042 252.236 334.56 252.758 334.81C253.171 335.006 253.621 335.006 253.999 334.828C258.64 332.648 262.886 330.505 266.843 328.326C266.861 328.969 266.933 329.594 267.059 330.201C267.599 332.845 269.452 334.828 272.042 335.489C273.014 335.739 274.003 335.828 274.956 335.828C275.604 335.828 276.234 335.792 276.845 335.739C278.77 335.596 280.803 335.238 282.854 334.72C292.388 332.273 301.095 326.575 306.834 322.502C313.436 317.804 320.092 312.231 327.198 305.426C328.619 304.068 329.968 302.746 331.281 301.442C329.194 306.676 327.413 311.803 325.992 316.751C324.769 321.002 323.816 324.985 323.132 328.897C322.934 329.969 323.474 330.951 324.391 331.237C324.841 331.38 325.363 331.309 325.794 331.041C326.244 330.773 326.55 330.326 326.64 329.826C327.378 325.664 328.367 321.466 329.608 317.179C337.29 317.054 344.413 315.5 350.782 312.535C352.149 311.892 353.48 311.195 354.757 310.445C354.451 311.481 354.164 312.535 353.93 313.589C352.617 319.305 352.563 323.967 353.786 327.879C354.506 330.183 355.657 332.166 357.132 333.613C358.805 335.256 360.874 336.417 363.32 337.06C365.047 337.525 366.9 337.739 368.897 337.739C370.084 337.739 371.326 337.65 372.639 337.489C376.291 337.043 380.104 336.042 384.008 334.524C392.067 331.38 399.299 326.789 404.93 321.252C406.243 319.948 407.448 318.608 408.492 317.251C409.121 316.429 409.103 315.304 408.456 314.571L408.51 314.607ZM273.23 318.912C273.985 317.376 274.831 315.84 275.82 314.232C276.288 313.464 276.773 312.714 277.277 311.963L277.691 311.356C277.691 311.356 277.727 311.302 277.727 311.285C277.727 311.267 277.763 311.231 277.781 311.213L277.925 311.017C278.213 310.606 278.5 310.195 278.788 309.802C281.091 306.658 283.555 303.8 286.11 301.299C286.758 300.674 287.405 300.067 288.071 299.477L288.323 299.245L288.359 299.209C288.359 299.209 288.395 299.191 288.413 299.174L288.844 298.816C289.186 298.531 289.528 298.263 289.87 297.995C291.201 296.959 292.46 296.101 293.683 295.422C293.953 295.262 294.241 295.119 294.529 294.976L295.213 294.672C295.824 294.422 296.382 294.226 296.939 294.083C297.155 294.029 297.371 293.976 297.587 293.94L298.271 293.85C298.451 293.85 298.648 293.833 298.882 293.85C298.882 293.85 298.972 293.868 299.044 293.886C299.044 293.94 299.044 293.993 299.044 294.047C299.044 294.154 299.044 294.279 299.062 294.422C299.062 294.494 299.062 294.565 299.062 294.601V294.654C299.026 294.815 298.99 294.976 298.954 295.119C298.882 295.44 298.774 295.726 298.648 296.119L298.541 296.369C298.451 296.583 298.361 296.78 298.271 296.994C297.875 297.852 297.371 298.727 296.742 299.674L296.4 300.174C296.22 300.424 296.04 300.674 295.86 300.906C295.446 301.46 295.033 301.996 294.601 302.514C292.658 304.872 290.337 307.212 287.477 309.713C286.865 310.231 286.002 310.963 285.246 311.588C284.383 312.285 283.501 312.981 282.62 313.642C280.749 315.071 278.734 316.5 276.629 317.912C275.262 318.84 273.841 319.734 272.402 320.645C272.654 320.055 272.924 319.484 273.194 318.912H273.23Z" fill="white"/>
<path d="M365.662 346.471C354.67 345.381 343.121 344.899 331.338 345.024C321.354 345.113 311.028 345.649 300.648 346.596C292.211 347.364 283.684 348.418 275.283 349.722C269.167 350.668 263.518 351.687 257.995 352.83C257.456 352.937 256.916 353.044 256.376 353.151C254.488 353.526 252.545 353.919 250.584 354.473C249.558 354.741 249.235 355.67 249.433 356.456C249.612 357.135 250.188 357.724 250.998 357.724C251.142 357.724 251.285 357.706 251.447 357.671C253.372 357.188 255.315 356.76 257.276 356.349C262.367 355.259 267.656 354.277 273.43 353.348C281.31 352.062 289.405 351.008 297.482 350.204C307.61 349.186 317.72 348.578 327.524 348.382C339.146 348.132 350.515 348.489 361.326 349.382C362.73 349.507 364.133 349.632 365.554 349.775C365.95 349.793 366.363 349.668 366.705 349.382C367.065 349.061 367.281 348.578 367.281 348.132C367.281 347.257 366.615 346.578 365.68 346.488L365.662 346.471Z" fill="white"/>
<path d="M208.775 36C180.775 36 158 65.1524 158 101C158 136.848 180.775 166 208.775 166C236.774 166 259.549 136.848 259.549 101C259.549 65.1524 236.761 36 208.775 36ZM250 101C250 134.515 231.51 161.781 208.775 161.781C186.039 161.781 167.549 134.515 167.549 101C167.549 67.4846 186.039 40.2058 208.775 40.2058C231.51 40.2058 250 67.4715 250 100.987V101Z" fill="white"/>
<path d="M207.664 78.1892H209.873L213.1 51.6965C213.246 50.4649 212.862 49.2333 212.029 48.3162C211.195 47.3859 210.018 46.8618 208.762 46.8618C207.505 46.8618 206.328 47.3859 205.495 48.3162C204.662 49.2464 204.278 50.478 204.424 51.6965L207.651 78.1892H207.664Z" fill="white"/>
<path d="M189.214 72.5953C206.5 78.845 207.519 98.0659 207.519 98.2494V98.6948H209.992L210.005 98.2494C210.005 98.0528 211.037 78.845 228.31 72.5953C229.395 72.2022 230.254 71.3506 230.651 70.2762C231.048 69.2149 230.955 68.0488 230.4 67.0792L230.32 66.9351C229.275 65.127 226.921 64.4588 225.083 65.4415C214.198 71.2195 210.217 82.6578 208.762 90.5453C207.307 82.6578 203.326 71.2195 192.441 65.4415C190.589 64.4588 188.248 65.127 187.204 66.9351L187.124 67.0792C186.569 68.0488 186.476 69.228 186.873 70.2893C187.27 71.3637 188.129 72.2153 189.214 72.6084V72.5953Z" fill="white"/>
<path d="M237.633 124.126C234.975 128.843 229.353 132.014 223.627 132.014C217.9 132.014 212.583 129 209.845 124.48C209.845 124.454 209.845 124.428 209.845 124.402L209.911 123.891H207.61L207.676 124.402C207.676 124.402 207.676 124.454 207.676 124.48C204.938 129 199.463 132.014 193.895 132.014C188.326 132.014 182.547 128.843 179.888 124.126L179.756 123.891H177.878L177.944 124.402C178.896 132.394 185.761 138.421 193.895 138.421C200.547 138.421 206.34 134.385 208.761 128.555C211.181 134.399 216.974 138.421 223.627 138.421C231.761 138.421 238.625 132.394 239.577 124.402L239.643 123.891H237.765L237.633 124.126V124.126Z" fill="white"/>
<path d="M208.774 111.272C206.976 101.641 200.997 84.9361 181.198 82.8136C179.968 82.6826 178.738 83.0756 177.825 83.888C176.913 84.7003 176.384 85.8664 176.384 87.0849V87.1766C176.384 89.4302 178.116 91.2776 180.404 91.461C191.197 92.3389 199.053 97.226 203.722 105.965C207.227 112.516 207.531 118.91 207.531 118.976V119.421H210.004L210.017 118.976C210.017 118.91 210.335 112.529 213.827 105.965C218.495 97.2129 226.352 92.3389 237.144 91.461C239.445 91.2776 241.165 89.4302 241.165 87.1766V87.0849C241.165 85.8664 240.636 84.7003 239.723 83.888C238.81 83.0756 237.58 82.6826 236.35 82.8136C216.538 84.9361 210.573 101.641 208.774 111.272V111.272Z" fill="white"/>
<path d="M223.627 147.25C218.085 147.25 212.927 145.049 209.105 141.053L208.774 140.699L208.443 141.053C204.621 145.049 199.463 147.25 193.921 147.25C193.154 147.25 192.361 147.198 191.554 147.106L191.038 147.041V149.229L191.236 149.36C193.564 150.971 196.289 151.836 199.132 151.836C202.783 151.836 206.195 150.447 208.787 147.905C211.38 150.434 214.792 151.836 218.442 151.836C221.286 151.836 224.01 150.984 226.338 149.36L226.537 149.229V147.041L226.021 147.106C225.214 147.198 224.42 147.25 223.653 147.25H223.627Z" fill="white"/>
</svg>
