<svg width="119" height="119" viewBox="0 0 119 119" fill="none" xmlns="http://www.w3.org/2000/svg">
<path d="M28 14C28 21.732 21.732 28 14 28C6.26801 28 0 21.732 0 14C0 6.26801 6.26801 0 14 0C21.732 0 28 6.26801 28 14Z" fill="#292929"/>
<path d="M28 59.5C28 67.232 21.732 73.5 14 73.5C6.26801 73.5 0 67.232 0 59.5C0 51.768 6.26801 45.5 14 45.5C21.732 45.5 28 51.768 28 59.5Z" fill="#292929"/>
<path d="M28 105C28 112.732 21.732 119 14 119C6.26801 119 0 112.732 0 105C0 97.268 6.26801 91 14 91C21.732 91 28 97.268 28 105Z" fill="#292929"/>
<path d="M73.4961 14C73.4961 21.732 67.2281 28 59.4961 28C51.7641 28 45.4961 21.732 45.4961 14C45.4961 6.26801 51.7641 0 59.4961 0C67.2281 0 73.4961 6.26801 73.4961 14Z" fill="#292929"/>
<path d="M73.4961 59.5C73.4961 67.232 67.2281 73.5 59.4961 73.5C51.7641 73.5 45.4961 67.232 45.4961 59.5C45.4961 51.768 51.7641 45.5 59.4961 45.5C67.2281 45.5 73.4961 51.768 73.4961 59.5Z" fill="#292929"/>
<path d="M73.4961 105C73.4961 112.732 67.2281 119 59.4961 119C51.7641 119 45.4961 112.732 45.4961 105C45.4961 97.268 51.7641 91 59.4961 91C67.2281 91 73.4961 97.268 73.4961 105Z" fill="#292929"/>
<path d="M119 14C119 21.732 112.732 28 105 28C97.268 28 91 21.732 91 14C91 6.26801 97.268 0 105 0C112.732 0 119 6.26801 119 14Z" fill="#292929"/>
<path d="M119 59.5C119 67.232 112.732 73.5 105 73.5C97.268 73.5 91 67.232 91 59.5C91 51.768 97.268 45.5 105 45.5C112.732 45.5 119 51.768 119 59.5Z" fill="#292929"/>
<path d="M119 105C119 112.732 112.732 119 105 119C97.268 119 91 112.732 91 105C91 97.268 97.268 91 105 91C112.732 91 119 97.268 119 105Z" fill="#292929"/>
</svg>
