<svg width="24" height="25" viewBox="0 0 24 25" fill="none" xmlns="http://www.w3.org/2000/svg">
<path d="M4 13.5H3.25V14.25H4V13.5ZM8 14.25C8.41421 14.25 8.75 13.9142 8.75 13.5C8.75 13.0858 8.41421 12.75 8 12.75V14.25ZM5.5 3.25H10.5V1.75H5.5V3.25ZM4.75 13.5V4H3.25V13.5H4.75ZM8 12.75H4V14.25H8V12.75ZM11.25 4V8H12.75V4H11.25ZM10.5 3.25C10.9142 3.25 11.25 3.58579 11.25 4H12.75C12.75 2.75736 11.7426 1.75 10.5 1.75V3.25ZM5.5 1.75C4.25736 1.75 3.25 2.75736 3.25 4H4.75C4.75 3.58579 5.08579 3.25 5.5 3.25V1.75Z" fill="#4E5D70"/>
<path d="M16 3.75C15.5858 3.75 15.25 4.08579 15.25 4.5C15.25 4.91421 15.5858 5.25 16 5.25V3.75ZM18.845 13.9118L18.2384 14.353L18.845 13.9118ZM18.0362 14.75H13V16.25H18.0362V14.75ZM12.75 14.5V4.5H11.25V14.5H12.75ZM18.2384 5.64704L16.249 8.38253L17.4621 9.26479L19.4515 6.5293L18.2384 5.64704ZM16.249 11.6175L18.2384 14.353L19.4515 13.4707L17.4621 10.7352L16.249 11.6175ZM16 5.25H18.0362V3.75H16V5.25ZM16.249 8.38253C15.5477 9.34682 15.5477 10.6532 16.249 11.6175L17.4621 10.7352C17.1433 10.2969 17.1433 9.7031 17.4621 9.26479L16.249 8.38253ZM13 14.75C12.8619 14.75 12.75 14.6381 12.75 14.5H11.25C11.25 15.4665 12.0335 16.25 13 16.25V14.75ZM18.0362 16.25C19.4665 16.25 20.2928 14.6274 19.4515 13.4707L18.2384 14.353C18.3586 14.5182 18.2406 14.75 18.0362 14.75V16.25ZM19.4515 6.5293C20.2928 5.3726 19.4665 3.75 18.0362 3.75V5.25C18.2406 5.25 18.3586 5.4818 18.2384 5.64704L19.4515 6.5293Z" fill="#4E5D70"/>
<path d="M4 22.5L4 4.5" stroke="#4E5D70" stroke-width="1.5" stroke-linecap="round" stroke-linejoin="round"/>
</svg>
