<svg width="24" height="25" viewBox="0 0 24 25" fill="none" xmlns="http://www.w3.org/2000/svg">
<path d="M7.90717 3.86067C7.00763 3.29874 5.82782 3.39183 5.06847 4.15118L3.7817 5.43795C1.82739 7.39227 3.66372 12.3972 7.88327 16.6167C12.1028 20.8363 17.1077 22.6726 19.0621 20.7183L20.3488 19.4315C21.2371 18.5432 21.2137 17.0795 20.2964 16.1622L18.3033 14.1691C17.386 13.2518 15.9222 13.2283 15.0339 14.1166L14.7575 14.393C14.2779 14.8726 13.5042 14.9196 12.9641 14.4739C12.4432 14.044 11.9244 13.5806 11.4219 13.0781C10.9194 12.5756 10.456 12.0568 10.0261 11.5359C9.58045 10.9958 9.62737 10.2221 10.107 9.74247L10.3834 9.46609C11.0837 8.76578 11.2173 7.70785 10.7931 6.84197" stroke="#4E5D70" stroke-width="1.5" stroke-linecap="round"/>
</svg>
