<svg width="31" height="31" viewBox="0 0 31 31" fill="none" xmlns="http://www.w3.org/2000/svg">
<path fill-rule="evenodd" clip-rule="evenodd" d="M15.5 31C24.0604 31 31 24.0604 31 15.5C31 6.93959 24.0604 0 15.5 0C6.93959 0 0 6.93959 0 15.5C0 24.0604 6.93959 31 15.5 31ZM15.9428 12.1136C16.0032 11.8039 16.2947 11.6013 16.612 11.66C18.0016 11.9311 19.0739 13.007 19.3454 14.4001C19.4058 14.7105 19.2027 15.0123 18.894 15.0743C18.8568 15.0809 18.8203 15.0843 18.7837 15.0843C18.5115 15.0843 18.2752 14.8891 18.2234 14.6206V14.6199C18.0415 13.6872 17.3237 12.9677 16.3942 12.7865C16.0855 12.7259 15.8823 12.4234 15.9428 12.1136ZM16.5707 9.33862C16.422 9.3173 16.2726 9.36127 16.1538 9.45587C16.0316 9.55181 15.9553 9.69038 15.9387 9.8456C15.9035 10.1594 16.1299 10.4432 16.4433 10.4785C18.6044 10.7197 20.2841 12.4032 20.5271 14.571C20.5596 14.8615 20.8033 15.0807 21.0941 15.0807C21.116 15.0807 21.1373 15.0793 21.1592 15.0767C21.3112 15.06 21.4467 14.9847 21.5423 14.8648C21.6372 14.7449 21.6804 14.5957 21.6631 14.4431C21.3604 11.7383 19.267 9.63908 16.5707 9.33862ZM17.4254 17.5695C16.677 17.8317 15.8339 18.1271 14.3547 16.6483C12.8755 15.1695 13.1702 14.326 13.4317 13.5773C13.6404 12.9799 13.828 12.4428 13.0765 11.6916C12.8732 11.4883 12.6902 11.2957 12.5216 11.1183C11.3368 9.87131 10.8645 9.37416 9.04948 11.1893C9.0359 11.2062 9.01257 11.229 8.98243 11.2584C8.55008 11.6807 6.71496 13.473 12.1232 18.8798C17.53 24.285 19.3212 22.4499 19.7437 22.0171C19.7732 21.9868 19.7961 21.9634 19.813 21.9498C21.627 20.1363 21.1282 19.6618 19.8768 18.4715C19.7014 18.3047 19.5112 18.1238 19.3106 17.9232C18.5592 17.1723 18.0224 17.3604 17.4254 17.5695Z" fill="#1A1A1A"/>
</svg>
